<svg width="54" height="59" viewBox="0 0 54 59" fill="none" xmlns="http://www.w3.org/2000/svg">
<path d="M14.9659 46.48C12.4059 46.48 10.1979 45.776 8.34188 44.368C6.51788 42.96 5.10988 40.976 4.11788 38.416C3.12588 35.824 2.62988 32.752 2.62988 29.2C2.62988 25.648 3.12588 22.592 4.11788 20.032C5.10988 17.44 6.51788 15.44 8.34188 14.032C10.1979 12.624 12.4059 11.92 14.9659 11.92C17.5259 11.92 19.7339 12.624 21.5899 14.032C23.4459 15.44 24.8699 17.44 25.8619 20.032C26.8539 22.592 27.3499 25.648 27.3499 29.2C27.3499 32.752 26.8539 35.824 25.8619 38.416C24.8699 40.976 23.4459 42.96 21.5899 44.368C19.7339 45.776 17.5259 46.48 14.9659 46.48ZM14.9659 41.776C17.3019 41.776 19.1099 40.688 20.3899 38.512C21.6699 36.304 22.3099 33.2 22.3099 29.2C22.3099 25.2 21.6699 22.112 20.3899 19.936C19.1099 17.728 17.3019 16.624 14.9659 16.624C12.6299 16.624 10.8219 17.728 9.54188 19.936C8.26188 22.112 7.62188 25.2 7.62188 29.2C7.62188 33.2 8.26188 36.304 9.54188 38.512C10.8219 40.688 12.6299 41.776 14.9659 41.776ZM39.9941 43.648V16.384L41.7701 17.728L35.1461 21.232L33.7541 16.72L42.7301 11.92H45.2261V43.648H39.9941ZM34.6661 46V41.008H50.6981V46H34.6661Z" fill="#ED8A09"/>
<path d="M19 56H35" stroke="#ED8A09" stroke-width="5"/>
</svg>
