<svg width="191" height="26" viewBox="0 0 191 26" fill="none" xmlns="http://www.w3.org/2000/svg">
<path d="M13.0404 13.268C10.971 13.268 9.95771 12.7453 10.0004 11.7C10.0004 10.7187 10.9924 10.228 12.9764 10.228C13.4457 10.228 13.8937 10.2813 14.3204 10.388C15.0244 9.684 15.3764 8.61733 15.3764 7.188C15.3764 4.71333 13.723 3.476 10.4164 3.476C8.68838 3.476 7.04571 3.84933 5.48838 4.596C4.91238 4.87333 4.38971 5.12933 3.92038 5.364C3.47238 5.59867 3.05638 5.716 2.67238 5.716C2.28838 5.716 2.09637 5.59867 2.09637 5.364C2.09637 5.08667 2.30971 4.68133 2.73638 4.148C3.16304 3.59333 3.76038 3.03867 4.52838 2.484C6.49104 1.11867 8.72038 0.425332 11.2164 0.403999C14.4804 0.403999 16.8804 1.05467 18.4164 2.356C19.739 3.444 20.4004 4.92667 20.4004 6.804C20.4004 8.98 19.3337 10.644 17.2004 11.796C19.2484 12.9693 20.4644 14.4093 20.8484 16.116C20.9764 16.7133 21.0404 17.5027 21.0404 18.484C21.0404 19.4653 20.7737 20.3933 20.2404 21.268C19.707 22.1427 18.9924 22.8787 18.0964 23.476C16.3044 24.628 14.011 25.204 11.2164 25.204C9.23238 25.204 7.02438 24.756 4.59238 23.86C2.97104 23.2627 1.77638 22.548 1.00838 21.716C0.624375 21.3107 0.432375 20.9053 0.432375 20.5C0.453708 20.0947 0.656375 19.892 1.04037 19.892C1.44571 19.892 2.20304 20.0307 3.31238 20.308V20.276C3.31238 18.612 3.50438 16.9053 3.88838 15.156C4.54971 12.1053 5.31771 9.716 6.19238 7.988C7.13104 6.068 8.10171 5.108 9.10438 5.108C9.38171 5.108 9.52038 5.588 9.52038 6.548C9.52038 7.508 9.42438 8.48933 9.23238 9.492C9.06171 10.4947 8.86971 11.4867 8.65638 12.468C8.46438 13.428 8.27238 14.3027 8.08038 15.092C7.90971 15.8813 7.82438 16.4467 7.82438 16.788L7.50438 21.62C8.76304 21.9613 9.82971 22.132 10.7044 22.132C11.579 22.132 12.3684 21.9827 13.0724 21.684C14.843 20.9373 15.7284 19.636 15.7284 17.78C15.7284 16.6707 15.6217 15.7533 15.4084 15.028C15.195 14.3027 14.811 13.6627 14.2564 13.108C13.7657 13.2147 13.3604 13.268 13.0404 13.268ZM43.2486 16.948C43.6326 16.948 43.8246 17.4387 43.8246 18.42C43.8246 18.9533 43.6006 19.604 43.1526 20.372C42.7046 21.1187 42.118 21.812 41.3926 22.452C40.6886 23.0707 39.8993 23.5827 39.0246 23.988C38.15 24.3933 37.2966 24.596 36.4646 24.596C35.334 24.596 34.5766 23.604 34.1926 21.62C33.638 22.5373 32.9126 23.2947 32.0166 23.892C31.1206 24.468 29.9153 24.756 28.4006 24.756C26.9073 24.756 25.702 24.2867 24.7846 23.348C23.8673 22.4093 23.4193 21.268 23.4406 19.924C23.4406 16.2973 24.646 13.4387 27.0566 11.348C28.0806 10.4733 29.03 9.89733 29.9046 9.62C30.8006 9.34267 31.7393 9.204 32.7206 9.204C33.702 9.204 34.502 9.37467 35.1206 9.716C35.4193 9.09733 35.7606 8.788 36.1446 8.788C36.8913 8.788 37.5953 9.11867 38.2566 9.78C38.9393 10.42 39.2806 11.028 39.2806 11.604C38.982 12.308 38.5446 13.1507 37.9686 14.132C37.798 15.1133 37.7126 16.4893 37.7126 18.26C37.7126 20.0307 37.9366 20.916 38.3846 20.916C38.9393 20.916 40.2833 19.8067 42.4166 17.588C42.8006 17.1613 43.078 16.948 43.2486 16.948ZM28.1446 18.868C28.1446 20.5107 28.7526 21.332 29.9686 21.332C31.27 21.3107 32.3473 20.6173 33.2006 19.252C33.4993 18.7827 33.7446 18.2067 33.9366 17.524C33.9366 15.1347 34.15 13.0867 34.5766 11.38C32.8486 11.7213 31.3446 12.5533 30.0646 13.876C28.7846 15.1987 28.1446 16.8627 28.1446 18.868ZM51.5696 17.492C52.1456 19.7747 53.1163 20.916 54.4816 20.916C55.143 20.916 55.7403 20.7133 56.2736 20.308C56.807 19.9027 57.287 19.4653 57.7136 18.996C58.1403 18.5053 58.5136 18.0573 58.8336 17.652C59.1536 17.2467 59.4523 17.044 59.7296 17.044C60.007 17.044 60.1456 17.4067 60.1456 18.132C60.1456 19.6467 59.4416 21.108 58.0336 22.516C56.6256 23.924 55.047 24.6173 53.2976 24.596C51.5696 24.596 50.023 23.0707 48.6576 20.02C48.2736 19.1667 47.911 18.3027 47.5696 17.428L47.3456 21.812C47.3456 22.2173 47.3243 22.6227 47.2816 23.028C47.239 23.412 47.0576 23.732 46.7376 23.988C45.9056 24.6493 45.063 24.98 44.2096 24.98C43.207 24.98 42.7056 23.9453 42.7056 21.876C42.7056 18.8893 43.0576 15.764 43.7616 12.5C44.4656 9.236 45.1483 6.78267 45.8096 5.14C46.4923 3.476 47.015 2.36667 47.3776 1.812C47.7616 1.25733 48.0603 0.915999 48.2736 0.787998C48.487 0.659999 48.7216 0.595999 48.9776 0.595999C49.255 0.595999 49.543 0.734666 49.8416 1.012C50.1403 1.268 50.4603 1.67333 50.8016 2.228C51.143 2.76133 51.3136 3.29467 51.3136 3.828C51.335 4.34 51.2496 4.852 51.0576 5.364C50.887 5.85467 50.6523 6.34533 50.3536 6.836C50.055 7.30533 49.7243 7.796 49.3616 8.308C48.999 8.79867 48.6363 9.332 48.2736 9.908L47.9536 12.596C48.7003 11.0387 49.799 9.99333 51.2496 9.46C51.7616 9.268 52.359 9.172 53.0416 9.172C54.407 9.172 55.4523 9.50267 56.1776 10.164C56.903 10.804 57.2656 11.7533 57.2656 13.012C57.2656 14.2707 56.6363 15.3373 55.3776 16.212C54.119 17.0867 52.8496 17.5133 51.5696 17.492ZM52.7856 13.748C52.7856 12.98 52.3483 12.596 51.4736 12.596C50.599 12.596 49.6496 13.4387 48.6256 15.124C48.327 15.6147 48.071 16.116 47.8576 16.628C50.0763 16.5 51.591 15.9027 52.4016 14.836C52.6576 14.4947 52.7856 14.132 52.7856 13.748ZM65.9941 21.012C67.6581 21.012 69.2688 20.3507 70.8261 19.028C71.4021 18.5373 71.8715 18.0893 72.2341 17.684C72.5968 17.2573 72.8741 17.044 73.0661 17.044C73.3648 17.044 73.5141 17.3427 73.5141 17.94C73.5141 18.5373 73.3541 19.2093 73.0341 19.956C72.7141 20.6813 72.1808 21.396 71.4341 22.1C69.5995 23.828 67.0821 24.692 63.8821 24.692C61.3435 24.692 59.6155 23.7747 58.6981 21.94C58.3781 21.3 58.2181 20.3827 58.2181 19.188C58.2181 17.9933 58.4528 16.756 58.9221 15.476C59.3915 14.1747 60.0101 13.0547 60.7781 12.116C61.5675 11.1773 62.4741 10.452 63.4981 9.94C64.5221 9.40667 65.6101 9.14 66.7621 9.14C67.9355 9.14 68.8315 9.428 69.4501 10.004C70.0901 10.58 70.4101 11.3267 70.4101 12.244C70.4101 13.1613 70.1755 13.9187 69.7061 14.516C69.2581 15.092 68.6715 15.5827 67.9461 15.988C67.2208 16.372 66.4101 16.724 65.5141 17.044C64.6395 17.3427 63.7755 17.684 62.9221 18.068V18.868C62.9435 19.636 63.2635 20.18 63.8821 20.5C64.5008 20.82 65.2048 20.9907 65.9941 21.012ZM65.4501 11.988C64.3408 11.988 63.5728 13.2787 63.1461 15.86C63.5941 15.5613 64.0101 15.2947 64.3941 15.06C64.7995 14.8253 65.1515 14.6013 65.4501 14.388C66.0901 13.9187 66.4208 13.3853 66.4421 12.788C66.4421 12.2547 66.1115 11.988 65.4501 11.988ZM76.5851 19.124L76.7771 23.028C76.7771 23.54 76.5105 23.9987 75.9771 24.404C75.4438 24.8093 74.7185 25.012 73.8011 25.012C73.2678 25.012 72.8945 24.7347 72.6811 24.18C72.4891 23.6253 72.3931 22.8147 72.3931 21.748C72.3931 19.508 72.4998 17.7587 72.7131 16.5C72.9478 15.22 73.3958 13.9293 74.0571 12.628C73.0758 11.6893 72.5851 10.8787 72.5851 10.196C72.5851 8.76667 73.3531 8.052 74.8891 8.052C75.6785 8.052 76.3718 8.468 76.9691 9.3C77.3958 9.876 77.7051 10.548 77.8971 11.316C78.1958 11.4227 78.5691 11.476 79.0171 11.476C79.6358 11.476 80.3505 11.2733 81.1611 10.868L81.9931 10.452C82.2491 10.324 82.4731 10.26 82.6651 10.26C83.2838 10.26 83.9025 11.1667 84.5211 12.98C84.3291 13.812 84.1158 14.612 83.8811 15.38C83.6678 16.148 83.4118 17.076 83.1131 18.164C82.8145 19.252 82.6545 19.988 82.6331 20.372C82.6331 20.7347 82.7505 20.916 82.9851 20.916C83.3051 20.916 83.6998 20.7133 84.1691 20.308C84.6385 19.9027 85.1078 19.4653 85.5771 18.996C86.0465 18.5053 86.4731 18.0573 86.8571 17.652C87.2625 17.2467 87.5398 17.044 87.6891 17.044C87.9878 17.044 88.1371 17.4067 88.1371 18.132C88.1371 19.604 87.4865 21.0547 86.1851 22.484C84.9051 23.9133 83.4331 24.6173 81.7691 24.596C80.7878 24.596 80.0518 24.2013 79.5611 23.412C79.0705 22.6227 78.8145 21.6627 78.7931 20.532C78.7931 18.292 79.2945 16.1693 80.2971 14.164C79.8278 14.356 79.2945 14.452 78.6971 14.452C78.1211 14.452 77.7051 14.4307 77.4491 14.388C77.2571 15.1987 77.0651 16.02 76.8731 16.852C76.6811 17.6627 76.5851 18.42 76.5851 19.124ZM93.8341 9.012C95.2635 8.99067 96.3301 9.25733 97.0341 9.812C97.7381 10.3453 98.0901 11.124 98.0901 12.148C98.0901 13.1507 97.7808 14.0147 97.1621 14.74C96.5648 15.444 95.8288 15.9453 94.9541 16.244C95.5728 16.884 96.1275 17.5347 96.6181 18.196C97.1301 18.8573 97.3861 19.5507 97.3861 20.276C97.3861 21.7053 96.8208 22.8147 95.6901 23.604C94.5595 24.372 92.9808 24.756 90.9541 24.756C88.9488 24.756 87.4448 24.3613 86.4421 23.572C85.4395 22.7613 84.9381 21.8547 84.9381 20.852C84.9381 19.828 85.1835 18.9 85.6741 18.068C86.1861 17.236 86.7301 16.82 87.3061 16.82C87.6475 16.82 87.8928 16.948 88.0421 17.204C88.1915 17.4387 88.4688 18.1427 88.8741 19.316C89.0235 19.7427 89.2688 20.148 89.6101 20.532C90.3995 21.4067 91.6475 21.844 93.3541 21.844C93.0981 21.0333 92.6821 20.34 92.1061 19.764C91.5515 19.1667 90.9968 18.5907 90.4421 18.036C89.8875 17.4813 89.3968 16.8947 88.9701 16.276C88.5435 15.636 88.3301 14.8893 88.3301 14.036C88.3301 12.5 88.9061 11.252 90.0581 10.292C91.1461 9.43867 92.4048 9.012 93.8341 9.012ZM93.7061 14.932C94.5595 14.0147 94.9861 13.2787 94.9861 12.724C94.9861 12.468 94.8901 12.244 94.6981 12.052C94.5275 11.8387 94.2715 11.732 93.9301 11.732C93.5888 11.732 93.2581 11.7747 92.9381 11.86C92.6395 11.9453 92.3941 12.0093 92.2021 12.052C92.2021 12.8627 92.7035 13.8227 93.7061 14.932ZM128.258 19.316C128.813 18.9107 129.314 18.42 129.762 17.844C130.21 17.2467 130.584 16.948 130.882 16.948C131.202 16.948 131.362 17.4173 131.362 18.356C131.362 19.2733 131.096 20.148 130.562 20.98C130.05 21.7907 129.368 22.4733 128.514 23.028C126.765 24.18 124.696 24.756 122.306 24.756C119.405 24.756 117.154 24.0307 115.554 22.58C113.954 21.1293 113.154 19.1133 113.154 16.532C113.154 13.3533 113.922 10.3347 115.458 7.476C115.97 6.53733 116.546 5.67333 117.186 4.884C116.696 4.308 116.301 3.71067 116.002 3.092C115.725 2.452 115.586 1.972 115.586 1.652C115.586 1.076 115.8 0.787998 116.226 0.787998C116.525 0.809333 116.866 1.012 117.25 1.396L118.242 2.356C118.498 2.612 118.765 2.82533 119.042 2.996C121.154 1.204 123.426 0.307999 125.858 0.307999C128.312 0.307999 129.901 0.990665 130.626 2.356C130.882 2.868 131.01 3.49733 131.01 4.244C131.01 5.37467 130.52 6.324 129.538 7.092C128.557 7.86 127.234 8.244 125.57 8.244C123.928 8.244 122.221 7.90267 120.45 7.22C118.936 9.80133 118.178 12.5 118.178 15.316C118.178 19.22 119.736 21.172 122.85 21.172C124.77 21.172 126.573 20.5533 128.258 19.316ZM121.986 5.236C123.074 5.59867 124.258 5.78 125.538 5.78C126.818 5.78 127.458 5.428 127.458 4.724C127.458 3.892 126.936 3.476 125.89 3.476C124.461 3.476 123.16 4.06267 121.986 5.236ZM142.685 21.78C141 23.764 138.973 24.756 136.605 24.756C134.258 24.756 132.498 24.1587 131.325 22.964C130.152 21.748 129.576 20.244 129.597 18.452C129.576 15.9133 130.376 13.7267 131.997 11.892C133.618 10.0573 135.741 9.14 138.365 9.14C139.56 9.14 140.52 9.28933 141.245 9.588C142.504 10.1 143.133 10.58 143.133 11.028C143.133 11.3693 142.248 11.5507 140.477 11.572C138.728 11.572 137.256 12.18 136.061 13.396C134.888 14.5907 134.301 16.1053 134.301 17.94C134.301 18.9 134.578 19.7107 135.133 20.372C135.709 21.012 136.509 21.332 137.533 21.332C138.578 21.332 139.442 21.1187 140.125 20.692C138.61 19.668 137.853 18.1853 137.853 16.244C137.832 15.22 138.194 14.292 138.941 13.46C139.709 12.6067 140.68 12.18 141.853 12.18C143.048 12.1587 143.901 12.4787 144.413 13.14C144.925 13.8013 145.181 14.6547 145.181 15.7C145.181 16.724 144.936 17.812 144.445 18.964H144.637C145.576 18.9427 146.386 18.612 147.069 17.972C147.325 17.716 147.538 17.492 147.709 17.3C147.901 17.108 148.093 17.012 148.285 17.012C148.584 17.012 148.733 17.364 148.733 18.068C148.733 19.3693 148.349 20.3507 147.581 21.012C146.813 21.652 145.96 21.972 145.021 21.972C144.104 21.972 143.325 21.908 142.685 21.78ZM142.397 18.068C142.76 17.3 142.941 16.5533 142.941 15.828C142.941 15.1027 142.706 14.74 142.237 14.74C142.045 14.74 141.885 14.8787 141.757 15.156C141.629 15.4333 141.565 15.7 141.565 15.956C141.565 16.8093 141.842 17.5133 142.397 18.068ZM157.084 10.996C157.084 9.56667 158.193 8.852 160.412 8.852C160.967 8.852 161.308 9.03333 161.436 9.396C161.585 9.75867 161.66 10.3133 161.66 11.06C161.66 12.1053 161.425 13.7267 160.956 15.924C160.487 18.1213 160.263 19.604 160.284 20.372C160.284 20.7347 160.401 20.916 160.636 20.916C160.956 20.916 161.351 20.7133 161.82 20.308C162.289 19.9027 162.759 19.4653 163.228 18.996C163.697 18.5053 164.124 18.0573 164.508 17.652C164.913 17.2467 165.191 17.044 165.34 17.044C165.639 17.044 165.788 17.4067 165.788 18.132C165.788 19.6253 165.052 21.0653 163.58 22.452C161.105 23.9027 159.537 24.628 158.876 24.628C158.812 24.628 158.759 24.6173 158.716 24.596C157.905 24.596 157.329 24.3293 156.988 23.796C156.668 23.2627 156.465 22.5907 156.38 21.78C155.953 22.5693 155.367 23.252 154.62 23.828C153.873 24.3827 153.02 24.66 152.06 24.66C150.375 24.66 149.073 24.34 148.156 23.7C147.26 23.06 146.812 22.1107 146.812 20.852C146.812 20.2973 146.887 19.7853 147.036 19.316C147.207 18.8467 147.473 18.2707 147.836 17.588L148.764 9.716C149.425 9.204 150.375 8.948 151.612 8.948C152.593 8.948 153.148 9.588 153.276 10.868C153.383 11.9133 153.329 12.852 153.116 13.684C152.924 14.4947 152.657 15.5293 152.316 16.788C151.975 18.0253 151.804 19.124 151.804 20.084C151.804 20.852 152.284 21.236 153.244 21.236C154.289 21.236 155.196 20.3187 155.964 18.484C156.561 17.076 156.967 15.508 157.18 13.78C157.159 13.6093 157.137 13.396 157.116 13.14C157.116 12.8627 157.105 12.596 157.084 12.34C157.084 12.084 157.084 11.828 157.084 11.572V10.996ZM168.866 19.124L169.058 23.028C169.058 23.54 168.792 23.9987 168.258 24.404C167.725 24.8093 167 25.012 166.082 25.012C165.549 25.012 165.176 24.7347 164.962 24.18C164.77 23.6253 164.674 22.8147 164.674 21.748C164.674 19.508 164.781 17.7587 164.994 16.5C165.229 15.22 165.677 13.9293 166.338 12.628C165.357 11.6893 164.866 10.8787 164.866 10.196C164.866 8.76667 165.634 8.052 167.17 8.052C167.96 8.052 168.653 8.468 169.25 9.3C169.677 9.876 169.986 10.548 170.178 11.316C170.477 11.4227 170.85 11.476 171.298 11.476C171.917 11.476 172.632 11.2733 173.442 10.868L174.274 10.452C174.53 10.324 174.754 10.26 174.946 10.26C175.565 10.26 176.184 11.1667 176.802 12.98C176.61 13.812 176.397 14.612 176.162 15.38C175.949 16.148 175.693 17.076 175.394 18.164C175.096 19.252 174.936 19.988 174.914 20.372C174.914 20.7347 175.032 20.916 175.266 20.916C175.586 20.916 175.981 20.7133 176.45 20.308C176.92 19.9027 177.389 19.4653 177.858 18.996C178.328 18.5053 178.754 18.0573 179.138 17.652C179.544 17.2467 179.821 17.044 179.97 17.044C180.269 17.044 180.418 17.4067 180.418 18.132C180.418 19.604 179.768 21.0547 178.466 22.484C177.186 23.9133 175.714 24.6173 174.05 24.596C173.069 24.596 172.333 24.2013 171.842 23.412C171.352 22.6227 171.096 21.6627 171.074 20.532C171.074 18.292 171.576 16.1693 172.578 14.164C172.109 14.356 171.576 14.452 170.978 14.452C170.402 14.452 169.986 14.4307 169.73 14.388C169.538 15.1987 169.346 16.02 169.154 16.852C168.962 17.6627 168.866 18.42 168.866 19.124ZM180.227 22.772C179.993 22.196 179.822 21.5347 179.715 20.788C179.609 20.02 179.555 18.9533 179.555 17.588C179.555 16.2227 179.811 14.3773 180.323 12.052H178.883C178.627 12.052 178.499 11.9453 178.499 11.732C178.499 11.22 178.542 10.804 178.627 10.484C178.734 10.1427 178.969 9.75867 179.331 9.332H180.099C180.398 9.332 180.718 9.32133 181.059 9.3C182.083 6.01467 183.129 4.372 184.195 4.372C185.049 4.39333 185.646 4.93733 185.987 6.004C186.073 6.30267 186.169 6.62267 186.275 6.964L184.963 9.268C186.457 9.31067 187.395 9.332 187.779 9.332C188.185 9.332 188.398 9.37467 188.419 9.46C188.462 9.524 188.483 9.63067 188.483 9.78C188.483 10.164 188.387 10.644 188.195 11.22C188.025 11.796 187.822 12.0733 187.587 12.052L184.387 11.892C183.939 14.4947 183.715 16.6493 183.715 18.356C183.715 20.0627 183.961 20.916 184.451 20.916C184.857 20.916 185.593 20.5853 186.659 19.924C187.726 19.2413 188.494 18.5907 188.963 17.972C189.433 17.3533 189.817 17.044 190.115 17.044C190.414 17.044 190.563 17.4067 190.563 18.132C190.563 18.8573 190.307 19.604 189.795 20.372C189.283 21.1187 188.633 21.812 187.843 22.452C187.075 23.0707 186.211 23.5827 185.251 23.988C184.313 24.3933 183.491 24.596 182.787 24.596C182.083 24.596 181.539 24.436 181.155 24.116C180.793 23.7747 180.483 23.3267 180.227 22.772Z" fill="#4F1114"/>
</svg>
