<svg width="214" height="30" viewBox="0 0 214 30" fill="none" xmlns="http://www.w3.org/2000/svg">
<path d="M15.5319 19.652C15.5319 20.74 15.4145 21.7107 15.1799 22.564C14.2412 22.564 12.8545 22.5853 11.0199 22.628L6.82788 22.66C4.92921 22.66 3.03054 22.596 1.13188 22.468C1.15321 21.7853 1.12121 19.1293 1.03588 14.5C0.971875 11.876 0.939875 9.86 0.939875 8.452C0.939875 5.52933 1.01454 2.80933 1.16388 0.292L3.97988 0.195999C7.13721 0.0679995 9.54788 0.00399971 11.2119 0.00399971C12.6412 0.00399971 14.0279 0.057333 15.3719 0.164C15.4572 0.611999 15.4999 1.13467 15.4999 1.732C15.4999 2.052 15.4785 2.57467 15.4359 3.3C15.3932 3.98267 15.3719 4.516 15.3719 4.9C14.0919 5.17733 12.6625 5.316 11.0839 5.316L6.92388 5.348C6.81721 6.35067 6.76388 7.18267 6.76388 7.844C6.76388 8.356 6.82788 8.804 6.95588 9.188L9.06788 8.932C9.36654 8.932 9.81454 8.95333 10.4119 8.996L10.8279 9.028C10.9345 9.668 10.9879 10.3613 10.9879 11.108L10.9239 13.668C10.2412 13.86 9.32388 13.956 8.17188 13.956L7.33988 13.924C7.19054 13.924 7.09454 13.9453 7.05188 13.988L6.92388 15.652C6.92388 16.5267 6.96654 17.252 7.05188 17.828C8.16121 17.828 9.23854 17.86 10.2839 17.924C10.6465 17.9453 11.0945 17.9667 11.6279 17.988C12.1612 18.0093 12.7905 18.02 13.5159 18.02L15.4679 17.956C15.5105 18.9373 15.5319 19.5027 15.5319 19.652ZM21.5839 15.94C21.7972 14.9373 22.0212 13.732 22.2559 12.324C22.7465 9.59333 23.2159 7.64133 23.6639 6.468L25.2959 6.436C26.1065 6.39333 26.7359 6.372 27.1839 6.372C27.9092 6.372 28.4745 6.39333 28.8799 6.436C28.3892 7.80133 27.9519 9.24133 27.5679 10.756C27.1839 12.2707 26.7359 14.2227 26.2239 16.612C25.6265 19.3427 25.1572 21.348 24.8159 22.628C24.0692 22.756 23.1519 22.82 22.0639 22.82L17.9039 22.756C16.8799 16.5267 15.7279 11.0227 14.4479 6.244C15.0025 6.35067 15.6212 6.404 16.3039 6.404C16.7519 6.404 17.0932 6.39333 17.3279 6.372L18.4159 6.34C18.8639 6.34 19.3652 6.372 19.9199 6.436L20.5919 10.34C20.9545 12.7507 21.2852 14.6173 21.5839 15.94ZM33.4564 15.396C33.4777 16.1 33.5097 16.6227 33.5524 16.964C33.6164 17.284 33.7657 17.6253 34.0004 17.988C34.171 18.308 34.395 18.5533 34.6724 18.724C34.9497 18.8947 35.2377 18.98 35.5364 18.98C35.9844 18.98 36.347 18.7453 36.6244 18.276C36.9017 17.7853 37.019 17.0707 36.9764 16.132C37.595 16.2173 38.2564 16.2387 38.9604 16.196L41.9684 16.356C41.9684 17.316 41.8937 18.2867 41.7444 19.268C41.6164 20.2493 41.3604 20.996 40.9764 21.508C40.5497 22.1053 39.931 22.5107 39.1204 22.724C38.331 22.9587 37.403 23.076 36.3364 23.076C35.931 23.076 35.3657 23.0547 34.6404 23.012C34.299 22.9907 33.7977 22.98 33.1364 22.98C32.475 22.8947 31.8137 22.66 31.1524 22.276C30.1284 21.4653 29.371 20.3133 28.8804 18.82C28.3897 17.3267 28.1444 15.7053 28.1444 13.956C28.1444 12.1213 28.4004 10.436 28.9124 8.9C29.339 7.94 30.1284 7.19333 31.2804 6.66C32.4324 6.12667 33.7124 5.86 35.1204 5.86C35.8884 5.86 36.635 5.94533 37.3604 6.116C39.003 6.436 40.1977 7.21467 40.9444 8.452C41.7124 9.668 42.0964 11.1293 42.0964 12.836C42.0964 13.1133 42.075 13.5933 42.0324 14.276C41.627 14.3827 40.699 14.4893 39.2484 14.596C37.7977 14.6813 36.443 14.724 35.1844 14.724H33.4564V15.396ZM36.5924 9.636C36.2724 9.444 35.9844 9.348 35.7284 9.348C34.9817 9.348 34.4484 9.51867 34.1284 9.86C33.8084 10.2013 33.6164 10.6813 33.5524 11.3C33.531 11.3853 33.5204 11.4813 33.5204 11.588C33.5204 11.716 33.5844 11.7907 33.7124 11.812C33.8404 11.8333 34.1604 11.8333 34.6724 11.812H36.0804L37.0404 11.844H37.4564C37.5204 11.8653 37.563 11.8653 37.5844 11.844C37.6057 11.8227 37.6164 11.78 37.6164 11.716V11.588C37.6164 11.14 37.531 10.7453 37.3604 10.404C37.211 10.0627 36.9977 9.81733 36.7204 9.668L36.5924 9.636ZM48.2191 7.172C48.3258 7.15067 48.4538 7.108 48.6031 7.044C48.7738 6.95867 48.9338 6.89467 49.0831 6.852C49.9791 6.57467 51.1418 6.436 52.5711 6.436C53.6165 6.436 54.1391 6.48933 54.1391 6.596L54.1071 8.26L54.1391 12.58L53.2751 12.292L51.4191 11.844C50.9071 11.78 50.4485 11.748 50.0431 11.748C49.3818 11.748 48.8805 11.908 48.5391 12.228C48.1978 12.548 48.0378 13.1027 48.0591 13.892C48.1445 16.516 48.1871 19.3747 48.1871 22.468C47.6325 22.6173 47.1738 22.7027 46.8111 22.724C46.4485 22.7667 45.9898 22.7773 45.4351 22.756C45.2218 22.7347 44.8805 22.724 44.4111 22.724C43.8991 22.724 43.4085 22.7453 42.9391 22.788C42.9391 20.228 42.9285 18.3293 42.9071 17.092C42.8645 14.3187 42.8431 12.2173 42.8431 10.788C42.8431 9.74267 42.8645 8.26 42.9071 6.34C43.5898 6.42533 44.1231 6.468 44.5071 6.468C45.0618 6.468 45.6058 6.436 46.1391 6.372C46.6511 6.308 47.1525 6.276 47.6431 6.276C48.0058 6.276 48.1871 6.308 48.1871 6.372L48.2191 7.14V7.172ZM68.1924 6.372C68.2777 8.84667 68.3204 11.8013 68.3204 15.236C68.3204 18.5427 68.267 21.4227 68.1604 23.876V24.804C68.1604 25.252 68.139 25.6147 68.0964 25.892C68.0537 26.1693 67.947 26.4573 67.7764 26.756C67.243 27.588 66.6564 28.164 66.0164 28.484C65.3764 28.804 64.683 28.996 63.9364 29.06C63.723 29.1027 63.435 29.124 63.0724 29.124L62.3044 29.092H61.5364L60.5444 29.06C59.4777 29.06 58.4964 28.8253 57.6004 28.356C56.7044 27.8867 55.9684 27.236 55.3924 26.404C55.243 26.148 55.1257 25.8067 55.0404 25.38C54.955 24.9747 54.9124 24.5907 54.9124 24.228C54.9124 24.036 54.923 23.8973 54.9444 23.812C55.499 23.5773 56.235 23.46 57.1524 23.46C57.7497 23.46 58.699 23.5453 60.0004 23.716C60.0004 24.2707 60.139 24.708 60.4164 25.028C60.715 25.3693 61.0564 25.54 61.4404 25.54C61.7177 25.54 61.995 25.4013 62.2724 25.124C62.5497 24.8467 62.7417 24.4947 62.8484 24.068V23.972L62.8804 23.78C62.9017 23.6947 62.9124 23.396 62.9124 22.884C62.891 22.7987 62.8804 22.6387 62.8804 22.404C62.3897 22.5533 61.611 22.6493 60.5444 22.692C60.2244 22.692 59.979 22.7027 59.8084 22.724C58.7417 22.724 57.7817 22.564 56.9284 22.244C56.0964 21.924 55.499 21.38 55.1364 20.612H55.1684C54.8697 20.0147 54.6457 19.4173 54.4964 18.82C54.3684 18.2227 54.2724 17.5507 54.2084 16.804C54.2084 14.9267 54.3044 13.3053 54.4964 11.94C54.7097 10.5747 55.243 9.35867 56.0964 8.292C56.9497 7.204 58.251 6.58533 60.0004 6.436C61.2804 6.436 62.2297 6.67067 62.8484 7.14C62.8484 6.82 62.9017 6.58533 63.0084 6.436C63.755 6.35067 64.5124 6.308 65.2804 6.308L65.8244 6.34H66.3684L67.2004 6.372H68.1924ZM62.4324 18.564C62.603 18.5 62.731 18.3187 62.8164 18.02C62.9017 17.7 62.9764 17.2733 63.0404 16.74C63.0404 14.4573 62.9124 12.7613 62.6564 11.652V11.684C62.5284 11.3427 62.3364 11.0973 62.0804 10.948C61.8457 10.7773 61.579 10.692 61.2804 10.692C61.067 10.692 60.843 10.7453 60.6084 10.852C60.3737 10.9373 60.1817 11.0547 60.0324 11.204V11.172C59.3924 11.876 58.9977 12.7187 58.8484 13.7C58.8057 13.9133 58.7844 14.2333 58.7844 14.66V15.204C58.7844 16.292 59.0724 17.188 59.6484 17.892C60.0964 18.4467 60.7044 18.724 61.4724 18.724C61.8137 18.724 62.1337 18.6707 62.4324 18.564ZM74.9379 7.172C75.0445 7.15067 75.1725 7.108 75.3219 7.044C75.4925 6.95867 75.6525 6.89467 75.8019 6.852C76.6979 6.57467 77.8605 6.436 79.2899 6.436C80.3352 6.436 80.8579 6.48933 80.8579 6.596L80.8259 8.26L80.8579 12.58L79.9939 12.292L78.1379 11.844C77.6259 11.78 77.1672 11.748 76.7619 11.748C76.1005 11.748 75.5992 11.908 75.2579 12.228C74.9165 12.548 74.7565 13.1027 74.7779 13.892C74.8632 16.516 74.9059 19.3747 74.9059 22.468C74.3512 22.6173 73.8925 22.7027 73.5299 22.724C73.1672 22.7667 72.7085 22.7773 72.1539 22.756C71.9405 22.7347 71.5992 22.724 71.1299 22.724C70.6179 22.724 70.1272 22.7453 69.6579 22.788C69.6579 20.228 69.6472 18.3293 69.6259 17.092C69.5832 14.3187 69.5619 12.2173 69.5619 10.788C69.5619 9.74267 69.5832 8.26 69.6259 6.34C70.3085 6.42533 70.8419 6.468 71.2259 6.468C71.7805 6.468 72.3245 6.436 72.8579 6.372C73.3699 6.308 73.8712 6.276 74.3619 6.276C74.7245 6.276 74.9059 6.308 74.9059 6.372L74.9379 7.14V7.172ZM86.1751 15.396C86.1965 16.1 86.2285 16.6227 86.2711 16.964C86.3351 17.284 86.4845 17.6253 86.7191 17.988C86.8898 18.308 87.1138 18.5533 87.3911 18.724C87.6685 18.8947 87.9565 18.98 88.2551 18.98C88.7031 18.98 89.0658 18.7453 89.3431 18.276C89.6205 17.7853 89.7378 17.0707 89.6951 16.132C90.3138 16.2173 90.9751 16.2387 91.6791 16.196L94.6871 16.356C94.6871 17.316 94.6125 18.2867 94.4631 19.268C94.3351 20.2493 94.0791 20.996 93.6951 21.508C93.2685 22.1053 92.6498 22.5107 91.8391 22.724C91.0498 22.9587 90.1218 23.076 89.0551 23.076C88.6498 23.076 88.0845 23.0547 87.3591 23.012C87.0178 22.9907 86.5165 22.98 85.8551 22.98C85.1938 22.8947 84.5325 22.66 83.8711 22.276C82.8471 21.4653 82.0898 20.3133 81.5991 18.82C81.1085 17.3267 80.8631 15.7053 80.8631 13.956C80.8631 12.1213 81.1191 10.436 81.6311 8.9C82.0578 7.94 82.8471 7.19333 83.9991 6.66C85.1511 6.12667 86.4311 5.86 87.8391 5.86C88.6071 5.86 89.3538 5.94533 90.0791 6.116C91.7218 6.436 92.9165 7.21467 93.6631 8.452C94.4311 9.668 94.8151 11.1293 94.8151 12.836C94.8151 13.1133 94.7938 13.5933 94.7511 14.276C94.3458 14.3827 93.4178 14.4893 91.9671 14.596C90.5165 14.6813 89.1618 14.724 87.9031 14.724H86.1751V15.396ZM89.3111 9.636C88.9911 9.444 88.7031 9.348 88.4471 9.348C87.7005 9.348 87.1671 9.51867 86.8471 9.86C86.5271 10.2013 86.3351 10.6813 86.2711 11.3C86.2498 11.3853 86.2391 11.4813 86.2391 11.588C86.2391 11.716 86.3031 11.7907 86.4311 11.812C86.5591 11.8333 86.8791 11.8333 87.3911 11.812H88.7991L89.7591 11.844H90.1751C90.2391 11.8653 90.2818 11.8653 90.3031 11.844C90.3245 11.8227 90.3351 11.78 90.3351 11.716V11.588C90.3351 11.14 90.2498 10.7453 90.0791 10.404C89.9298 10.0627 89.7165 9.81733 89.4391 9.668L89.3111 9.636ZM100.394 15.396C100.415 16.1 100.447 16.6227 100.49 16.964C100.554 17.284 100.703 17.6253 100.938 17.988C101.109 18.308 101.333 18.5533 101.61 18.724C101.887 18.8947 102.175 18.98 102.474 18.98C102.922 18.98 103.285 18.7453 103.562 18.276C103.839 17.7853 103.957 17.0707 103.914 16.132C104.533 16.2173 105.194 16.2387 105.898 16.196L108.906 16.356C108.906 17.316 108.831 18.2867 108.682 19.268C108.554 20.2493 108.298 20.996 107.914 21.508C107.487 22.1053 106.869 22.5107 106.058 22.724C105.269 22.9587 104.341 23.076 103.274 23.076C102.869 23.076 102.303 23.0547 101.578 23.012C101.237 22.9907 100.735 22.98 100.074 22.98C99.4125 22.8947 98.7512 22.66 98.0899 22.276C97.0659 21.4653 96.3085 20.3133 95.8179 18.82C95.3272 17.3267 95.0819 15.7053 95.0819 13.956C95.0819 12.1213 95.3379 10.436 95.8499 8.9C96.2765 7.94 97.0659 7.19333 98.2179 6.66C99.3699 6.12667 100.65 5.86 102.058 5.86C102.826 5.86 103.573 5.94533 104.298 6.116C105.941 6.436 107.135 7.21467 107.882 8.452C108.65 9.668 109.034 11.1293 109.034 12.836C109.034 13.1133 109.013 13.5933 108.97 14.276C108.565 14.3827 107.637 14.4893 106.186 14.596C104.735 14.6813 103.381 14.724 102.122 14.724H100.394V15.396ZM103.53 9.636C103.21 9.444 102.922 9.348 102.666 9.348C101.919 9.348 101.386 9.51867 101.066 9.86C100.746 10.2013 100.554 10.6813 100.49 11.3C100.469 11.3853 100.458 11.4813 100.458 11.588C100.458 11.716 100.522 11.7907 100.65 11.812C100.778 11.8333 101.098 11.8333 101.61 11.812H103.018L103.978 11.844H104.394C104.458 11.8653 104.501 11.8653 104.522 11.844C104.543 11.8227 104.554 11.78 104.554 11.716V11.588C104.554 11.14 104.469 10.7453 104.298 10.404C104.149 10.0627 103.935 9.81733 103.658 9.668L103.53 9.636ZM115.029 7.652C115.05 7.652 115.05 7.652 115.029 7.652C115.029 7.63067 115.039 7.62 115.061 7.62C115.573 7.27867 116.159 7.012 116.821 6.82C117.503 6.60667 118.175 6.5 118.837 6.5C120.245 6.5 121.333 6.84133 122.101 7.524C122.698 8.05733 122.997 9.81733 122.997 12.804C122.997 13.6787 122.975 15.012 122.933 16.804C122.89 18.34 122.869 19.4387 122.869 20.1C122.869 20.8253 122.89 21.636 122.933 22.532C121.759 22.7027 120.607 22.7667 119.477 22.724H117.973C117.93 22.084 117.909 20.8467 117.909 19.012V17.412C117.909 16.3667 117.887 15.6093 117.845 15.14L117.813 14.948V14.724C117.77 14.1267 117.717 13.6573 117.653 13.316C117.61 12.9747 117.471 12.6547 117.237 12.356C117.023 12.0573 116.682 11.908 116.213 11.908C115.871 11.908 115.562 12.0573 115.285 12.356C115.007 12.6547 114.858 13.1027 114.837 13.7C114.815 14.02 114.805 14.5107 114.805 15.172C114.805 15.7053 114.826 16.484 114.869 17.508C114.911 18.5747 114.933 19.3747 114.933 19.908C114.933 20.868 114.89 21.7213 114.805 22.468C114.229 22.6173 113.759 22.7027 113.397 22.724C113.055 22.7667 112.671 22.7773 112.245 22.756C112.053 22.7347 111.743 22.724 111.317 22.724C110.826 22.724 110.346 22.7453 109.877 22.788C109.877 20.228 109.866 18.3293 109.845 17.092C109.802 14.3187 109.781 12.2173 109.781 10.788C109.781 9.74267 109.802 8.26 109.845 6.34C110.527 6.42533 111.061 6.468 111.445 6.468C111.807 6.468 112.159 6.44667 112.501 6.404L113.045 6.34C113.514 6.29733 113.877 6.276 114.133 6.276C114.645 6.276 114.922 6.35067 114.965 6.5C115.007 6.756 115.029 7.12933 115.029 7.62V7.652ZM145.313 19.652C145.313 20.74 145.196 21.7107 144.961 22.564C144.022 22.564 142.636 22.5853 140.801 22.628L136.609 22.66C134.71 22.66 132.812 22.596 130.913 22.468C130.934 21.7853 130.902 19.1293 130.817 14.5C130.753 11.876 130.721 9.86 130.721 8.452C130.721 5.52933 130.796 2.80933 130.945 0.292L133.761 0.195999C136.918 0.0679995 139.329 0.00399971 140.993 0.00399971C142.422 0.00399971 143.809 0.057333 145.153 0.164C145.238 0.611999 145.281 1.13467 145.281 1.732C145.281 2.052 145.26 2.57467 145.217 3.3C145.174 3.98267 145.153 4.516 145.153 4.9C143.873 5.17733 142.444 5.316 140.865 5.316L136.705 5.348C136.598 6.35067 136.545 7.18267 136.545 7.844C136.545 8.356 136.609 8.804 136.737 9.188L138.849 8.932C139.148 8.932 139.596 8.95333 140.193 8.996L140.609 9.028C140.716 9.668 140.769 10.3613 140.769 11.108L140.705 13.668C140.022 13.86 139.105 13.956 137.953 13.956L137.121 13.924C136.972 13.924 136.876 13.9453 136.833 13.988L136.705 15.652C136.705 16.5267 136.748 17.252 136.833 17.828C137.942 17.828 139.02 17.86 140.065 17.924C140.428 17.9453 140.876 17.9667 141.409 17.988C141.942 18.0093 142.572 18.02 143.297 18.02L145.249 17.956C145.292 18.9373 145.313 19.5027 145.313 19.652ZM159.279 11.748C158.746 11.8333 158.149 11.876 157.487 11.876C156.485 11.876 155.397 11.7587 154.223 11.524C154.245 11.4387 154.255 11.3 154.255 11.108C154.255 10.66 154.117 10.2867 153.839 9.988C153.562 9.68933 153.157 9.56133 152.623 9.604C152.303 9.71067 152.037 9.892 151.823 10.148C151.631 10.3827 151.535 10.6493 151.535 10.948C151.535 11.2893 151.631 11.6093 151.823 11.908C152.015 12.2067 152.293 12.4307 152.655 12.58H152.623C154.223 12.8147 155.514 13.092 156.495 13.412C157.477 13.732 158.223 14.2227 158.735 14.884C159.311 15.8227 159.599 16.7613 159.599 17.7C159.599 18.404 159.429 19.236 159.087 20.196C158.597 21.22 157.797 21.9773 156.687 22.468C155.599 22.9587 154.341 23.1933 152.911 23.172C150.586 23.2573 148.719 22.788 147.311 21.764C145.925 20.74 145.231 19.2787 145.231 17.38C146.085 17.2733 146.959 17.22 147.855 17.22L150.927 17.284C150.949 17.796 151.151 18.2227 151.535 18.564C151.919 18.884 152.346 19.044 152.815 19.044C153.157 19.044 153.455 18.916 153.711 18.66C153.967 18.3827 154.085 18.02 154.063 17.572C154.127 17.0173 153.957 16.6333 153.551 16.42C153.146 16.1853 152.538 15.9827 151.727 15.812L151.247 15.716C150.373 15.524 149.711 15.332 149.263 15.14C148.09 14.692 147.173 14.052 146.511 13.22C145.871 12.3667 145.551 11.4813 145.551 10.564C145.551 9.58267 145.882 8.66533 146.543 7.812C147.205 6.95867 148.101 6.372 149.231 6.052C149.999 5.83867 151.119 5.732 152.591 5.732C154.149 5.732 155.557 5.88133 156.815 6.18C157.839 6.60667 158.586 7.3 159.055 8.26C159.546 9.19867 159.791 10.308 159.791 11.588L159.279 11.748ZM167.158 6.532C168.267 6.48933 169.248 6.436 170.102 6.372L170.55 6.34C170.699 6.31867 170.848 6.31867 170.998 6.34C171.168 6.34 171.307 6.34 171.414 6.34H172.15C172.235 7.19333 172.278 7.684 172.278 7.812C172.278 7.91867 172.256 8.24933 172.214 8.804L172.182 9.156L172.15 9.86C172.15 10.0093 172.171 10.2547 172.214 10.596H167.222C167.222 13.988 167.211 16.068 167.19 16.836C167.51 17.2413 168.086 17.54 168.918 17.732C169.75 17.924 170.614 18.02 171.51 18.02L172.182 17.988V18.276L172.214 18.404V18.372C172.342 19.268 172.406 20.068 172.406 20.772C172.406 21.4547 172.31 22.0733 172.118 22.628C171.563 22.6707 170.998 22.692 170.422 22.692C168.48 22.692 166.774 22.468 165.302 22.02C163.851 21.5507 162.891 20.7613 162.422 19.652C162.23 18.5 162.102 17.3587 162.038 16.228C161.974 15.076 161.942 13.764 161.942 12.292V10.692C161.664 10.7133 161.408 10.724 161.174 10.724C160.96 10.7027 160.768 10.692 160.598 10.692H159.638L159.734 6.468C160.31 6.48933 161.067 6.5 162.006 6.5L162.038 0.387999C162.507 0.345332 162.912 0.323999 163.254 0.323999C163.595 0.323999 164 0.345332 164.47 0.387999L164.694 0.419998C165.206 0.462666 165.6 0.483999 165.878 0.483999C166.283 0.483999 166.699 0.451999 167.126 0.387999V6.212L167.158 6.532ZM186.512 6.404C186.512 6.51067 186.522 6.692 186.544 6.948C186.586 7.204 186.608 7.43867 186.608 7.652C186.586 8.20667 186.576 9.03867 186.576 10.148C186.576 11.6413 186.586 12.7613 186.608 13.508V15.428L186.64 17.348C186.64 18.6067 186.608 19.8973 186.544 21.22V21.54C186.544 21.8813 186.501 22.148 186.416 22.34C186.33 22.5107 186.106 22.628 185.744 22.692H181.68C181.189 22.5427 180.944 22.2547 180.944 21.828V21.604C180.41 21.9453 179.824 22.2227 179.184 22.436C178.544 22.628 177.925 22.724 177.328 22.724C176.197 22.724 175.237 22.2653 174.448 21.348C173.68 20.4307 173.104 19.3 172.72 17.956C172.336 16.5907 172.144 15.268 172.144 13.988C172.144 12.58 172.4 11.3107 172.912 10.18C173.424 9.028 174.128 8.12133 175.024 7.46C175.92 6.79867 176.912 6.45733 178 6.436C178.661 6.436 179.28 6.48933 179.856 6.596C180.432 6.70267 180.794 6.83067 180.944 6.98C180.944 6.87333 180.922 6.73467 180.88 6.564C180.837 6.39333 180.848 6.26533 180.912 6.18C180.954 6.13733 181.104 6.116 181.36 6.116C181.744 6.116 182.245 6.148 182.864 6.212C183.504 6.25467 183.909 6.28667 184.08 6.308L186.096 6.404H186.512ZM177.04 14.628C177.04 15.5667 177.253 16.356 177.68 16.996C178.106 17.6147 178.682 17.924 179.408 17.924C179.877 17.924 180.218 17.796 180.432 17.54C180.645 17.284 180.773 16.9427 180.816 16.516C180.88 16.0893 180.912 15.4493 180.912 14.596V13.764C180.912 12.8467 180.89 12.228 180.848 11.908C180.826 11.5667 180.73 11.3427 180.56 11.236C180.41 11.108 180.133 11.044 179.728 11.044C179.045 11.044 178.49 11.236 178.064 11.62C177.637 11.9827 177.36 12.4307 177.232 12.964C177.104 13.3907 177.04 13.9453 177.04 14.628ZM194.626 6.532C195.736 6.48933 196.717 6.436 197.57 6.372L198.018 6.34C198.168 6.31867 198.317 6.31867 198.466 6.34C198.637 6.34 198.776 6.34 198.882 6.34H199.618C199.704 7.19333 199.746 7.684 199.746 7.812C199.746 7.91867 199.725 8.24933 199.682 8.804L199.65 9.156L199.618 9.86C199.618 10.0093 199.64 10.2547 199.682 10.596H194.69C194.69 13.988 194.68 16.068 194.658 16.836C194.978 17.2413 195.554 17.54 196.386 17.732C197.218 17.924 198.082 18.02 198.978 18.02L199.65 17.988V18.276L199.682 18.404V18.372C199.81 19.268 199.874 20.068 199.874 20.772C199.874 21.4547 199.778 22.0733 199.586 22.628C199.032 22.6707 198.466 22.692 197.89 22.692C195.949 22.692 194.242 22.468 192.77 22.02C191.32 21.5507 190.36 20.7613 189.89 19.652C189.698 18.5 189.57 17.3587 189.506 16.228C189.442 15.076 189.41 13.764 189.41 12.292V10.692C189.133 10.7133 188.877 10.724 188.642 10.724C188.429 10.7027 188.237 10.692 188.066 10.692H187.106L187.202 6.468C187.778 6.48933 188.536 6.5 189.474 6.5L189.506 0.387999C189.976 0.345332 190.381 0.323999 190.722 0.323999C191.064 0.323999 191.469 0.345332 191.938 0.387999L192.162 0.419998C192.674 0.462666 193.069 0.483999 193.346 0.483999C193.752 0.483999 194.168 0.451999 194.594 0.387999V6.212L194.626 6.532ZM205.081 15.396C205.103 16.1 205.135 16.6227 205.177 16.964C205.241 17.284 205.391 17.6253 205.625 17.988C205.796 18.308 206.02 18.5533 206.297 18.724C206.575 18.8947 206.863 18.98 207.161 18.98C207.609 18.98 207.972 18.7453 208.249 18.276C208.527 17.7853 208.644 17.0707 208.601 16.132C209.22 16.2173 209.881 16.2387 210.585 16.196L213.593 16.356C213.593 17.316 213.519 18.2867 213.369 19.268C213.241 20.2493 212.985 20.996 212.601 21.508C212.175 22.1053 211.556 22.5107 210.745 22.724C209.956 22.9587 209.028 23.076 207.961 23.076C207.556 23.076 206.991 23.0547 206.265 23.012C205.924 22.9907 205.423 22.98 204.761 22.98C204.1 22.8947 203.439 22.66 202.777 22.276C201.753 21.4653 200.996 20.3133 200.505 18.82C200.015 17.3267 199.769 15.7053 199.769 13.956C199.769 12.1213 200.025 10.436 200.537 8.9C200.964 7.94 201.753 7.19333 202.905 6.66C204.057 6.12667 205.337 5.86 206.745 5.86C207.513 5.86 208.26 5.94533 208.985 6.116C210.628 6.436 211.823 7.21467 212.569 8.452C213.337 9.668 213.721 11.1293 213.721 12.836C213.721 13.1133 213.7 13.5933 213.657 14.276C213.252 14.3827 212.324 14.4893 210.873 14.596C209.423 14.6813 208.068 14.724 206.809 14.724H205.081V15.396ZM208.217 9.636C207.897 9.444 207.609 9.348 207.353 9.348C206.607 9.348 206.073 9.51867 205.753 9.86C205.433 10.2013 205.241 10.6813 205.177 11.3C205.156 11.3853 205.145 11.4813 205.145 11.588C205.145 11.716 205.209 11.7907 205.337 11.812C205.465 11.8333 205.785 11.8333 206.297 11.812H207.705L208.665 11.844H209.081C209.145 11.8653 209.188 11.8653 209.209 11.844C209.231 11.8227 209.241 11.78 209.241 11.716V11.588C209.241 11.14 209.156 10.7453 208.985 10.404C208.836 10.0627 208.623 9.81733 208.345 9.668L208.217 9.636Z" fill="#24B24B"/>
</svg>
