<svg width="56" height="56" viewBox="0 0 56 56" fill="none" xmlns="http://www.w3.org/2000/svg">
<g clip-path="url(#clip0_226_6227)">
<path d="M32.4023 32.2383C30.7982 30.8711 29.0208 29.8229 27.0703 29.0938C25.1198 28.3646 23.0964 28 21 28C19.3958 28 17.8464 28.2096 16.3516 28.6289C14.8568 29.0482 13.4622 29.6315 12.168 30.3789C10.8737 31.1263 9.69792 32.0378 8.64062 33.1133C7.58333 34.1888 6.67188 35.3737 5.90625 36.668C5.14062 37.9622 4.54818 39.3568 4.12891 40.8516C3.70964 42.3464 3.5 43.8958 3.5 45.5H0C0 43.3125 0.31901 41.207 0.957031 39.1836C1.59505 37.1602 2.51562 35.2917 3.71875 33.5781C4.92188 31.8646 6.34375 30.3424 7.98438 29.0117C9.625 27.681 11.4844 26.6328 13.5625 25.8672C11.5026 24.5182 9.89844 22.8229 8.75 20.7812C7.60156 18.7396 7.01823 16.4792 7 14C7 12.0677 7.36458 10.2539 8.09375 8.55859C8.82292 6.86328 9.81641 5.3776 11.0742 4.10156C12.332 2.82552 13.8177 1.82292 15.5312 1.09375C17.2448 0.364583 19.0677 0 21 0C22.9323 0 24.7461 0.364583 26.4414 1.09375C28.1367 1.82292 29.6224 2.81641 30.8984 4.07422C32.1745 5.33203 33.1771 6.81771 33.9062 8.53125C34.6354 10.2448 35 12.0677 35 14C35 15.2031 34.8542 16.3789 34.5625 17.5273C34.2708 18.6758 33.8333 19.7604 33.25 20.7812C32.6667 21.8021 31.9831 22.7409 31.1992 23.5977C30.4154 24.4544 29.4948 25.2109 28.4375 25.8672C29.6224 26.3229 30.7526 26.8789 31.8281 27.5352C32.9036 28.1914 33.9154 28.9297 34.8633 29.75L32.4023 32.2383ZM10.5 14C10.5 15.4583 10.7734 16.8164 11.3203 18.0742C11.8672 19.332 12.6146 20.444 13.5625 21.4102C14.5104 22.3763 15.6224 23.1328 16.8984 23.6797C18.1745 24.2266 19.5417 24.5 21 24.5C22.4401 24.5 23.7982 24.2266 25.0742 23.6797C26.3503 23.1328 27.4622 22.3854 28.4102 21.4375C29.3581 20.4896 30.1146 19.3776 30.6797 18.1016C31.2448 16.8255 31.5182 15.4583 31.5 14C31.5 12.5599 31.2266 11.2018 30.6797 9.92578C30.1328 8.64974 29.3854 7.53776 28.4375 6.58984C27.4896 5.64193 26.3685 4.88542 25.0742 4.32031C23.7799 3.75521 22.4219 3.48177 21 3.5C19.5417 3.5 18.1836 3.77344 16.9258 4.32031C15.668 4.86719 14.556 5.61458 13.5898 6.5625C12.6237 7.51042 11.8672 8.63151 11.3203 9.92578C10.7734 11.2201 10.5 12.5781 10.5 14ZM47.25 21C48.4531 21 49.5833 21.2279 50.6406 21.6836C51.6979 22.1393 52.6185 22.7682 53.4023 23.5703C54.1862 24.3724 54.8151 25.3021 55.2891 26.3594C55.763 27.4167 56 28.5469 56 29.75C56 30.9531 55.7721 32.0833 55.3164 33.1406C54.8607 34.1979 54.2318 35.1276 53.4297 35.9297C52.6276 36.7318 51.6979 37.3607 50.6406 37.8164C49.5833 38.2721 48.4531 38.5 47.25 38.5C46.8307 38.5 46.4206 38.4727 46.0195 38.418L29.9688 54.4688C29.4766 54.9609 28.9115 55.3346 28.2734 55.5898C27.6354 55.8451 26.9609 55.9818 26.25 56C25.5208 56 24.8372 55.8633 24.1992 55.5898C23.5612 55.3164 23.0052 54.9427 22.5312 54.4688C22.0573 53.9948 21.6836 53.4388 21.4102 52.8008C21.1367 52.1628 21 51.4792 21 50.75C21 50.0573 21.1276 49.3919 21.3828 48.7539C21.638 48.1159 22.0208 47.5417 22.5312 47.0312L38.582 30.9805C38.5273 30.5794 38.5 30.1693 38.5 29.75C38.5 28.5469 38.7279 27.4167 39.1836 26.3594C39.6393 25.3021 40.2591 24.3815 41.043 23.5977C41.8268 22.8138 42.7565 22.1849 43.832 21.7109C44.9076 21.237 46.0469 21 47.25 21ZM47.25 35C47.9792 35 48.6628 34.8633 49.3008 34.5898C49.9388 34.3164 50.4948 33.9427 50.9688 33.4688C51.4427 32.9948 51.8164 32.4388 52.0898 31.8008C52.3633 31.1628 52.5 30.4792 52.5 29.75C52.5 29.0026 52.3268 28.2552 51.9805 27.5078L47.9883 31.5H45.5V29.0117L49.4922 25.0195C48.7448 24.6732 47.9974 24.5 47.25 24.5C46.5208 24.5 45.8372 24.6367 45.1992 24.9102C44.5612 25.1836 44.0052 25.5573 43.5312 26.0312C43.0573 26.5052 42.6836 27.0612 42.4102 27.6992C42.1367 28.3372 42 29.0208 42 29.75C42 30.4974 42.1732 31.2448 42.5195 31.9922L25.0195 49.5195C24.6732 49.8659 24.5 50.276 24.5 50.75C24.5 51.224 24.6732 51.6341 25.0195 51.9805C25.3659 52.3268 25.776 52.5 26.25 52.5C26.724 52.5 27.1341 52.3268 27.4805 51.9805L45.0078 34.4805C45.7552 34.8268 46.5026 35 47.25 35Z" fill="#9747FF"/>
</g>
<defs>
<clipPath id="clip0_226_6227">
<rect width="56" height="56" fill="white"/>
</clipPath>
</defs>
</svg>
