<svg width="56" height="56" viewBox="0 0 56 56" fill="none" xmlns="http://www.w3.org/2000/svg">
<path d="M33.1852 7.32897C33.2568 7.23844 33.3456 7.16296 33.4465 7.10688C33.5473 7.0508 33.6583 7.01523 33.773 7.00222C33.8877 6.9892 34.0038 6.99901 34.1147 7.03106C34.2255 7.06311 34.329 7.11678 34.419 7.18897L36.309 8.70447L29.3983 17.5H33.8503L39.0443 10.892L43.4263 14.4025C43.5181 14.476 43.5941 14.5673 43.6499 14.6708C43.7056 14.7744 43.7399 14.8882 43.7507 15.0053C43.7615 15.1224 43.7485 15.2405 43.7126 15.3525C43.6767 15.4646 43.6186 15.5682 43.5418 15.6572L41.9528 17.5H46.5272C47.1298 16.5895 47.3701 15.4867 47.2011 14.4082C47.0321 13.3296 46.4659 12.3532 45.6138 11.6707L36.6065 4.45722C36.1565 4.09696 35.6398 3.82917 35.0861 3.66923C34.5323 3.50929 33.9524 3.46036 33.3796 3.52524C32.8069 3.59013 32.2526 3.76755 31.7486 4.04732C31.2447 4.32709 30.801 4.70369 30.443 5.15547L20.6658 17.5H25.13L33.1852 7.32897ZM36.75 33.25C36.2859 33.25 35.8407 33.4343 35.5126 33.7625C35.1844 34.0907 35 34.5358 35 35C35 35.4641 35.1844 35.9092 35.5126 36.2374C35.8407 36.5656 36.2859 36.75 36.75 36.75H42C42.4641 36.75 42.9092 36.5656 43.2374 36.2374C43.5656 35.9092 43.75 35.4641 43.75 35C43.75 34.5358 43.5656 34.0907 43.2374 33.7625C42.9092 33.4343 42.4641 33.25 42 33.25H36.75ZM10.5 12.25C9.10761 12.25 7.77226 12.8031 6.78769 13.7877C5.80312 14.7722 5.25 16.1076 5.25 17.5V42.875C5.25 44.9636 6.07968 46.9666 7.55653 48.4434C9.03338 49.9203 11.0364 50.75 13.125 50.75H42.875C44.9636 50.75 46.9666 49.9203 48.4435 48.4434C49.9203 46.9666 50.75 44.9636 50.75 42.875V27.125C50.75 25.0364 49.9203 23.0334 48.4435 21.5565C46.9666 20.0797 44.9636 19.25 42.875 19.25H10.5C10.0359 19.25 9.59075 19.0656 9.26256 18.7374C8.93438 18.4092 8.75 17.9641 8.75 17.5C8.75 17.0358 8.93438 16.5907 9.26256 16.2625C9.59075 15.9343 10.0359 15.75 10.5 15.75H18.515L21.308 12.25H10.5ZM8.75 42.875V22.4525C9.29775 22.645 9.8875 22.75 10.5 22.75H42.875C44.0353 22.75 45.1481 23.2109 45.9686 24.0314C46.7891 24.8519 47.25 25.9647 47.25 27.125V42.875C47.25 44.0353 46.7891 45.1481 45.9686 45.9686C45.1481 46.789 44.0353 47.25 42.875 47.25H13.125C11.9647 47.25 10.8519 46.789 10.0314 45.9686C9.21094 45.1481 8.75 44.0353 8.75 42.875Z" fill="#928FFF"/>
</svg>
