<svg width="56" height="56" viewBox="0 0 56 56" fill="none" xmlns="http://www.w3.org/2000/svg">
<path fill-rule="evenodd" clip-rule="evenodd" d="M45.5 9.33333H10.5C10.1906 9.33333 9.89383 9.45625 9.67504 9.67504C9.45625 9.89383 9.33333 10.1906 9.33333 10.5V45.5C9.33333 45.8094 9.45625 46.1062 9.67504 46.325C9.89383 46.5438 10.1906 46.6667 10.5 46.6667H45.5C45.8094 46.6667 46.1062 46.5438 46.325 46.325C46.5438 46.1062 46.6667 45.8094 46.6667 45.5V10.5C46.6667 10.1906 46.5438 9.89383 46.325 9.67504C46.1062 9.45625 45.8094 9.33333 45.5 9.33333ZM10.5 7C9.57174 7 8.6815 7.36875 8.02513 8.02513C7.36875 8.6815 7 9.57174 7 10.5V45.5C7 46.4283 7.36875 47.3185 8.02513 47.9749C8.6815 48.6312 9.57174 49 10.5 49H45.5C46.4283 49 47.3185 48.6312 47.9749 47.9749C48.6312 47.3185 49 46.4283 49 45.5V10.5C49 9.57174 48.6312 8.6815 47.9749 8.02513C47.3185 7.36875 46.4283 7 45.5 7H10.5Z" fill="#EF3C45"/>
<path fill-rule="evenodd" clip-rule="evenodd" d="M23.9042 19.0517C21.9873 19.383 20.5908 21.007 20.3622 22.939L18.667 37.3333H37.3337L35.635 22.9192C35.4087 20.9965 34.025 19.376 32.1187 19.0423C29.2603 18.5418 26.878 18.5372 23.9042 19.0517ZM25.352 24.0893C25.3826 23.7862 25.2935 23.4832 25.1036 23.245C24.9137 23.0067 24.6382 22.8522 24.3359 22.8144C24.0337 22.7766 23.7286 22.8586 23.4859 23.0427C23.2433 23.2269 23.0823 23.4987 23.0373 23.8L21.9815 32.2443C21.9586 32.3982 21.9666 32.555 22.0052 32.7057C22.0437 32.8564 22.1121 32.9978 22.2061 33.1217C22.3001 33.2456 22.418 33.3495 22.5527 33.4271C22.6874 33.5048 22.8364 33.5548 22.9907 33.5741C23.145 33.5934 23.3017 33.5816 23.4514 33.5395C23.6011 33.4973 23.7409 33.4257 23.8625 33.3288C23.9841 33.2318 24.0852 33.1116 24.1596 32.975C24.2341 32.8385 24.2805 32.6884 24.2962 32.5337L25.352 24.0893Z" fill="#EF3C45"/>
<path fill-rule="evenodd" clip-rule="evenodd" d="M26.2197 21.0898C26.7355 21.4561 27.1425 21.9553 27.3972 22.5345C27.652 23.1136 27.745 23.7509 27.6663 24.3787L26.6117 32.823C26.502 33.698 26.0797 34.4563 25.4683 35H34.7083L33.3177 23.1922C33.1987 22.1772 32.4963 21.4772 31.717 21.3407C29.7675 21 28.0887 20.9125 26.2197 21.0898ZM35.6347 22.9192C35.4083 20.9965 34.0247 19.376 32.1183 19.0423C29.26 18.5418 26.8777 18.5372 23.9038 19.0517C21.987 19.383 20.5905 21.007 20.3618 22.939L18.6667 37.3333H37.3333L35.6347 22.9192ZM25.3517 24.0893L24.2958 32.5337C24.2802 32.6884 24.2338 32.8385 24.1593 32.975C24.0848 33.1116 23.9838 33.2318 23.8622 33.3288C23.7406 33.4257 23.6008 33.4973 23.4511 33.5395C23.3013 33.5816 23.1447 33.5934 22.9904 33.5741C22.836 33.5548 22.6871 33.5048 22.5524 33.4271C22.4176 33.3495 22.2998 33.2456 22.2058 33.1217C22.1117 32.9978 22.0434 32.8564 22.0048 32.7057C21.9663 32.555 21.9582 32.3982 21.9812 32.2443L23.037 23.8C23.0526 23.6453 23.0991 23.4952 23.1735 23.3587C23.248 23.2221 23.349 23.1018 23.4706 23.0049C23.5923 22.908 23.7321 22.8363 23.8818 22.7942C24.0315 22.7521 24.1881 22.7403 24.3425 22.7596C24.4968 22.7789 24.6457 22.8289 24.7805 22.9066C24.9152 22.9842 25.0331 23.0881 25.1271 23.212C25.2211 23.3359 25.2894 23.4773 25.328 23.628C25.3666 23.7786 25.3746 23.9355 25.3517 24.0893ZM38.5 42H17.5V39.6667H38.5V42Z" fill="#EF3C45"/>
<path d="M15.167 28C15.167 28.3931 15.1845 28.7816 15.2195 29.1666H11.667V26.8333H15.2195C15.1845 27.2183 15.167 27.6068 15.167 28ZM17.5143 20.5986C17.0644 21.2352 16.6735 21.9116 16.3465 22.6193L13.2723 20.8436L14.439 18.823L17.5143 20.5986ZM22.6185 16.345C21.908 16.6751 21.2325 17.0671 20.6002 17.514L18.8233 14.4386L20.844 13.272L22.6185 16.345ZM28.0003 15.1666C27.6072 15.1666 27.2187 15.1841 26.8337 15.2191V11.6666H29.167V15.2191C28.7791 15.1842 28.3898 15.1667 28.0003 15.1666ZM35.4017 17.514C34.765 17.0641 34.0887 16.6732 33.381 16.3461L35.1567 13.272L37.1773 14.4386L35.4017 17.514ZM39.6553 22.6181C39.3278 21.9112 38.9366 21.2356 38.4863 20.5998L41.5617 18.823L42.7283 20.8436L39.6542 22.6181H39.6553ZM40.8337 28C40.8337 27.6068 40.8162 27.2183 40.7812 26.8333H44.3337V29.1666H40.7812C40.8162 28.7816 40.8337 28.3931 40.8337 28Z" fill="#EF3C45"/>
</svg>
