<svg width="73" height="72" viewBox="0 0 73 72" fill="none" xmlns="http://www.w3.org/2000/svg">
<path d="M54.5 54C52.85 54 51.437 53.412 50.261 52.236C49.085 51.06 48.498 49.648 48.5 48C48.5 46.35 49.088 44.937 50.264 43.761C51.44 42.585 52.852 41.998 54.5 42C56.15 42 57.563 42.588 58.739 43.764C59.915 44.94 60.502 46.352 60.5 48C60.5 49.65 59.912 51.063 58.736 52.239C57.56 53.415 56.148 54.002 54.5 54ZM42.5 66V64.275C42.5 62.075 43.6 60.312 45.8 58.986C48 57.66 50.9 56.998 54.5 57C58.1 57 61 57.663 63.2 58.989C65.4 60.315 66.5 62.077 66.5 64.275V66H42.5ZM36.5 30C38.15 30 39.563 29.412 40.739 28.236C41.915 27.06 42.502 25.648 42.5 24C42.5 22.35 41.912 20.937 40.736 19.761C39.56 18.585 38.148 17.998 36.5 18C34.85 18 33.437 18.588 32.261 19.764C31.085 20.94 30.498 22.352 30.5 24C30.5 25.65 31.088 27.063 32.264 28.239C33.44 29.415 34.852 30.002 36.5 30ZM30.5 48C30.5 49.65 31.088 51.063 32.264 52.239C33.44 53.415 34.852 54.002 36.5 54C38.15 54 39.563 53.412 40.739 52.236C41.915 51.06 42.502 49.648 42.5 48C42.5 46.35 41.912 44.937 40.736 43.761C39.56 42.585 38.148 41.998 36.5 42C34.85 42 33.437 42.588 32.261 43.764C31.085 44.94 30.498 46.352 30.5 48ZM36.5 51C35.65 51 34.937 50.712 34.361 50.136C33.785 49.56 33.498 48.848 33.5 48C33.5 47.15 33.788 46.437 34.364 45.861C34.94 45.285 35.652 44.998 36.5 45C37.35 45 38.063 45.288 38.639 45.864C39.215 46.44 39.502 47.152 39.5 48C39.5 48.85 39.212 49.563 38.636 50.139C38.06 50.715 37.348 51.002 36.5 51ZM21.5 21C21.5 16.75 22.938 13.187 25.814 10.311C28.69 7.435 32.252 5.998 36.5 6C40.75 6 44.313 7.438 47.189 10.314C50.065 13.19 51.502 16.752 51.5 21V33C51.5 33.85 51.212 34.563 50.636 35.139C50.06 35.715 49.348 36.002 48.5 36C47.65 36 46.937 35.712 46.361 35.136C45.785 34.56 45.498 33.848 45.5 33V21C45.5 18.45 44.6 16.312 42.8 14.586C41 12.86 38.9 11.998 36.5 12C34.1 12 32 12.863 30.2 14.589C28.4 16.315 27.5 18.452 27.5 21V51C27.5 53.1 28.175 54.975 29.525 56.625C30.875 58.275 32.525 59.325 34.475 59.775C35.175 59.925 35.763 60.275 36.239 60.825C36.715 61.375 36.952 62 36.95 62.7C36.95 63.7 36.575 64.5 35.825 65.1C35.075 65.7 34.2 65.875 33.2 65.625C29.8 64.875 27 63.163 24.8 60.489C22.6 57.815 21.5 54.652 21.5 51V21Z" fill="#323232"/>
</svg>
