<svg width="328" height="27" viewBox="0 0 328 27" fill="none" xmlns="http://www.w3.org/2000/svg">
<path d="M22.3906 11.875C22.3906 13.4583 22.0938 14.9688 21.5 16.4062C20.9167 17.8438 20.0365 19.1042 18.8594 20.1875L21.0156 22.75L15.2969 26.4375L13.9531 22.75C13.5573 22.8333 13.1562 22.8958 12.75 22.9375C12.3542 22.9792 11.9531 23 11.5469 23C10.5469 23 9.58854 22.875 8.67188 22.625C7.75521 22.375 6.89583 22.026 6.09375 21.5781C5.29167 21.1198 4.5625 20.5677 3.90625 19.9219C3.25 19.276 2.68229 18.5573 2.20312 17.7656C1.73438 16.974 1.36979 16.1198 1.10938 15.2031C0.859375 14.276 0.734375 13.3125 0.734375 12.3125C0.734375 11.3229 0.854167 10.3646 1.09375 9.4375C1.34375 8.5 1.69271 7.61979 2.14062 6.79688C2.59896 5.97396 3.14583 5.22396 3.78125 4.54688C4.42708 3.85938 5.14583 3.27083 5.9375 2.78125C6.72917 2.28125 7.58333 1.89583 8.5 1.625C9.41667 1.35417 10.3802 1.21875 11.3906 1.21875C13.0052 1.21875 14.4844 1.46354 15.8281 1.95312C17.1823 2.44271 18.3438 3.14583 19.3125 4.0625C20.2812 4.97917 21.0365 6.09896 21.5781 7.42188C22.1198 8.73438 22.3906 10.2188 22.3906 11.875ZM14.7969 12.3125C14.7969 11.8333 14.724 11.3698 14.5781 10.9219C14.4427 10.4635 14.2396 10.0625 13.9688 9.71875C13.6979 9.36458 13.3594 9.08333 12.9531 8.875C12.5469 8.66667 12.0781 8.5625 11.5469 8.5625C11.026 8.5625 10.5573 8.65625 10.1406 8.84375C9.72396 9.02083 9.36458 9.27083 9.0625 9.59375C8.77083 9.91667 8.54167 10.2969 8.375 10.7344C8.21875 11.1719 8.14062 11.6458 8.14062 12.1562C8.14062 12.6354 8.20833 13.1094 8.34375 13.5781C8.48958 14.0365 8.69792 14.4531 8.96875 14.8281C9.23958 15.1927 9.57812 15.4896 9.98438 15.7188C10.3906 15.9479 10.8594 16.0625 11.3906 16.0625C11.901 16.0625 12.3646 15.9635 12.7812 15.7656C13.2083 15.5573 13.5677 15.2812 13.8594 14.9375C14.1615 14.5938 14.3906 14.1979 14.5469 13.75C14.7135 13.2917 14.7969 12.8125 14.7969 12.3125ZM42.8281 11.5312C42.8281 12.4792 42.7188 13.3958 42.5 14.2812C42.2812 15.1562 41.9635 15.9792 41.5469 16.75C41.1406 17.5208 40.6406 18.2292 40.0469 18.875C39.4635 19.5104 38.8021 20.0573 38.0625 20.5156C37.3333 20.974 36.5365 21.3333 35.6719 21.5938C34.8073 21.8438 33.8906 21.9688 32.9219 21.9688C31.9844 21.9688 31.0885 21.849 30.2344 21.6094C29.3906 21.3698 28.599 21.0365 27.8594 20.6094C27.1198 20.1719 26.4479 19.651 25.8438 19.0469C25.25 18.4323 24.7396 17.7552 24.3125 17.0156C23.8958 16.2656 23.5677 15.4635 23.3281 14.6094C23.099 13.7552 22.9844 12.8646 22.9844 11.9375C22.9844 11.0312 23.0938 10.1458 23.3125 9.28125C23.5312 8.40625 23.8438 7.58333 24.25 6.8125C24.6667 6.04167 25.1667 5.33333 25.75 4.6875C26.3333 4.04167 26.9844 3.48438 27.7031 3.01562C28.4323 2.54688 29.2188 2.18229 30.0625 1.92188C30.9062 1.66146 31.7969 1.53125 32.7344 1.53125C34.2448 1.53125 35.6198 1.76562 36.8594 2.23438C38.1094 2.70312 39.1719 3.375 40.0469 4.25C40.9323 5.11458 41.6146 6.16667 42.0938 7.40625C42.5833 8.63542 42.8281 10.0104 42.8281 11.5312ZM35.8906 11.9375C35.8906 11.4896 35.8229 11.0573 35.6875 10.6406C35.5625 10.2135 35.375 9.83854 35.125 9.51562C34.875 9.18229 34.5625 8.91667 34.1875 8.71875C33.8229 8.51042 33.401 8.40625 32.9219 8.40625C32.4323 8.40625 31.9948 8.49479 31.6094 8.67188C31.224 8.84896 30.8906 9.09375 30.6094 9.40625C30.3385 9.70833 30.1302 10.0677 29.9844 10.4844C29.8385 10.8906 29.7656 11.3229 29.7656 11.7812C29.7656 12.2188 29.8281 12.6562 29.9531 13.0938C30.0781 13.5312 30.2656 13.9271 30.5156 14.2812C30.7656 14.6354 31.0729 14.9219 31.4375 15.1406C31.8125 15.3594 32.2448 15.4688 32.7344 15.4688C33.224 15.4688 33.6615 15.375 34.0469 15.1875C34.4427 14.9896 34.776 14.7292 35.0469 14.4062C35.3177 14.0729 35.526 13.6927 35.6719 13.2656C35.8177 12.8385 35.8906 12.3958 35.8906 11.9375ZM62.2344 8.4375C62.2344 9.25 62.1615 9.98958 62.0156 10.6562C61.8802 11.3125 61.6615 11.9167 61.3594 12.4688C61.0573 13.0208 60.6667 13.5312 60.1875 14C59.7083 14.4688 59.1302 14.9167 58.4531 15.3438L62.1719 21.9688L55.1406 23.3438L52.7344 16.6875L50.7969 16.75L50.5156 23.25H43.7969C43.849 20.875 43.8958 18.5104 43.9375 16.1562C43.9896 13.8021 44.0469 11.4375 44.1094 9.0625C44.1302 7.86458 44.151 6.67708 44.1719 5.5C44.1927 4.32292 44.2344 3.13542 44.2969 1.9375C45.026 1.66667 45.7448 1.44271 46.4531 1.26562C47.1615 1.08854 47.8698 0.953125 48.5781 0.859375C49.2969 0.755208 50.0208 0.6875 50.75 0.65625C51.4896 0.614583 52.2448 0.59375 53.0156 0.59375C54.2031 0.59375 55.349 0.760417 56.4531 1.09375C57.5677 1.41667 58.5521 1.90625 59.4062 2.5625C60.2604 3.21875 60.9427 4.03646 61.4531 5.01562C61.974 5.99479 62.2344 7.13542 62.2344 8.4375ZM55.2344 8.9375C55.2344 8.5 55.1719 8.09896 55.0469 7.73438C54.9323 7.36979 54.7552 7.05729 54.5156 6.79688C54.2865 6.52604 53.9948 6.31771 53.6406 6.17188C53.2969 6.01562 52.8906 5.9375 52.4219 5.9375C52.2135 5.9375 52.0104 5.95312 51.8125 5.98438C51.6146 6.00521 51.4219 6.04167 51.2344 6.09375L50.9844 11.9062H51.3594C51.8073 11.9062 52.2604 11.849 52.7188 11.7344C53.1875 11.6198 53.6042 11.4427 53.9688 11.2031C54.3438 10.9635 54.6458 10.6562 54.875 10.2812C55.1146 9.90625 55.2344 9.45833 55.2344 8.9375ZM83.0312 22.1562L75.2812 23.1562L74.3438 19.625H70.7812L70 23.1562L62.0312 22.375L68.25 1.5625L76.9375 1.125L83.0312 22.1562ZM73.7812 14.8438L72.5938 9.40625L71.4375 14.8438H73.7812ZM97.0625 15.2188L96.4062 22.1562L83.25 23.1875L83.75 0.875H91.875L90.7188 15.2188H97.0625ZM242.094 0.96875C242.031 1.94792 241.974 2.91667 241.922 3.875C241.87 4.83333 241.802 5.80208 241.719 6.78125L235.094 7.125L234.938 9.09375H239.594L239.25 13.9375L234.562 14.0938L234.406 16.375H238.281H241.031C240.969 17.5208 240.901 18.6615 240.828 19.7969C240.766 20.9219 240.708 22.0521 240.656 23.1875L227.188 23.5L227.688 0.96875H242.094ZM258.469 15.5C258.469 16.9271 258.219 18.1615 257.719 19.2031C257.229 20.2344 256.552 21.0885 255.688 21.7656C254.833 22.4323 253.828 22.9271 252.672 23.25C251.526 23.5625 250.292 23.7188 248.969 23.7188C248.458 23.7188 247.896 23.651 247.281 23.5156C246.677 23.3802 246.062 23.2135 245.438 23.0156C244.812 22.8073 244.208 22.5885 243.625 22.3594C243.052 22.1198 242.542 21.8958 242.094 21.6875L242.781 15.5625C243.667 16.0938 244.646 16.5 245.719 16.7812C246.802 17.0521 247.865 17.1875 248.906 17.1875C249.104 17.1875 249.344 17.1823 249.625 17.1719C249.906 17.151 250.172 17.1042 250.422 17.0312C250.682 16.9479 250.901 16.8281 251.078 16.6719C251.255 16.5156 251.344 16.2917 251.344 16C251.344 15.8021 251.281 15.6354 251.156 15.5C251.031 15.3542 250.87 15.2396 250.672 15.1562C250.474 15.0625 250.25 14.9948 250 14.9531C249.75 14.901 249.505 14.8646 249.266 14.8438C249.026 14.8229 248.802 14.8125 248.594 14.8125C248.385 14.8125 248.219 14.8125 248.094 14.8125C247.198 14.8125 246.38 14.6719 245.641 14.3906C244.911 14.1094 244.281 13.7135 243.75 13.2031C243.229 12.6823 242.823 12.0573 242.531 11.3281C242.24 10.5885 242.094 9.77083 242.094 8.875C242.094 7.64583 242.339 6.54688 242.828 5.57812C243.328 4.59896 243.99 3.77083 244.812 3.09375C245.646 2.40625 246.599 1.88021 247.672 1.51562C248.745 1.15104 249.854 0.96875 251 0.96875C251.51 0.96875 252.036 0.989583 252.578 1.03125C253.12 1.0625 253.656 1.125 254.188 1.21875C254.729 1.3125 255.255 1.43229 255.766 1.57812C256.276 1.72396 256.76 1.90625 257.219 2.125L256.625 8.46875C255.917 8.22917 255.172 8.03125 254.391 7.875C253.62 7.70833 252.865 7.625 252.125 7.625C251.99 7.625 251.812 7.63021 251.594 7.64062C251.385 7.64062 251.161 7.65625 250.922 7.6875C250.693 7.70833 250.458 7.74479 250.219 7.79688C249.979 7.84896 249.766 7.92188 249.578 8.01562C249.391 8.09896 249.24 8.21354 249.125 8.35938C249.01 8.50521 248.958 8.67708 248.969 8.875C248.979 9.10417 249.062 9.28125 249.219 9.40625C249.385 9.53125 249.594 9.625 249.844 9.6875C250.104 9.73958 250.385 9.76562 250.688 9.76562C251 9.76562 251.307 9.76042 251.609 9.75C251.911 9.72917 252.193 9.71354 252.453 9.70312C252.714 9.68229 252.927 9.67708 253.094 9.6875C253.927 9.73958 254.677 9.91667 255.344 10.2188C256.01 10.5208 256.573 10.9219 257.031 11.4219C257.5 11.9219 257.854 12.5208 258.094 13.2188C258.344 13.9062 258.469 14.6667 258.469 15.5ZM275.656 1.46875L275.5 8.09375L270.844 8.28125L270.281 22.7812L263.688 23.125L263.094 8.625L258.438 8.875L258.625 1.5L275.656 1.46875ZM294.219 22.1562L286.469 23.1562L285.531 19.625H281.969L281.188 23.1562L273.219 22.375L279.438 1.5625L288.125 1.125L294.219 22.1562ZM284.969 14.8438L283.781 9.40625L282.625 14.8438H284.969ZM309.156 1.46875L309 8.09375L304.344 8.28125L303.781 22.7812L297.188 23.125L296.594 8.625L291.938 8.875L292.125 1.5L309.156 1.46875ZM327.172 10.875C327.172 11.7812 327.109 12.6875 326.984 13.5938C325.203 13.7083 323.432 13.8958 321.672 14.1562C319.911 14.4062 318.151 14.6562 316.391 14.9062C316.661 15.6562 317.083 16.2552 317.656 16.7031C318.24 17.151 318.932 17.375 319.734 17.375C320.151 17.375 320.604 17.2969 321.094 17.1406C321.594 16.9844 322.089 16.7917 322.578 16.5625C323.068 16.3229 323.536 16.0677 323.984 15.7969C324.432 15.526 324.818 15.2812 325.141 15.0625L324.391 22.1562C323.984 22.4688 323.542 22.7344 323.062 22.9531C322.594 23.1719 322.104 23.349 321.594 23.4844C321.083 23.6198 320.568 23.7188 320.047 23.7812C319.526 23.8438 319.016 23.875 318.516 23.875C317.484 23.875 316.542 23.7344 315.688 23.4531C314.833 23.1719 314.057 22.7812 313.359 22.2812C312.672 21.7708 312.068 21.1719 311.547 20.4844C311.026 19.7969 310.594 19.0469 310.25 18.2344C309.906 17.4219 309.646 16.5625 309.469 15.6562C309.292 14.75 309.203 13.8333 309.203 12.9062C309.203 11.9375 309.292 10.9688 309.469 10C309.646 9.03125 309.911 8.09896 310.266 7.20312C310.63 6.30729 311.083 5.47917 311.625 4.71875C312.177 3.94792 312.818 3.27604 313.547 2.70312C314.276 2.13021 315.099 1.68229 316.016 1.35938C316.943 1.03646 317.964 0.875 319.078 0.875C320.005 0.875 320.849 1.00521 321.609 1.26562C322.38 1.51562 323.062 1.86979 323.656 2.32812C324.26 2.77604 324.781 3.3125 325.219 3.9375C325.667 4.5625 326.031 5.25 326.312 6C326.604 6.73958 326.818 7.52604 326.953 8.35938C327.099 9.18229 327.172 10.0208 327.172 10.875ZM320.922 10.0625C320.922 9.77083 320.891 9.47396 320.828 9.17188C320.766 8.85938 320.661 8.57812 320.516 8.32812C320.38 8.07812 320.198 7.875 319.969 7.71875C319.74 7.55208 319.453 7.46875 319.109 7.46875C318.693 7.46875 318.323 7.58333 318 7.8125C317.688 8.03125 317.417 8.3125 317.188 8.65625C316.958 8.98958 316.771 9.35417 316.625 9.75C316.479 10.1458 316.37 10.5104 316.297 10.8438L320.922 10.4062V10.0625Z" fill="#545454"/>
<path d="M122.906 20.3125C122.417 20.9271 121.812 21.4635 121.094 21.9219C120.375 22.3802 119.604 22.7604 118.781 23.0625C117.958 23.3646 117.115 23.5885 116.25 23.7344C115.385 23.8906 114.562 23.9688 113.781 23.9688C112.271 23.9688 110.88 23.6979 109.609 23.1562C108.339 22.6146 107.24 21.8698 106.312 20.9219C105.396 19.9635 104.677 18.8385 104.156 17.5469C103.635 16.2552 103.375 14.8646 103.375 13.375C103.375 12.2396 103.505 11.1302 103.766 10.0469C104.026 8.95312 104.396 7.92708 104.875 6.96875C105.365 6 105.958 5.11458 106.656 4.3125C107.354 3.5 108.146 2.80208 109.031 2.21875C109.917 1.63542 110.885 1.18229 111.938 0.859375C112.99 0.536458 114.115 0.375 115.312 0.375C115.76 0.375 116.24 0.395833 116.75 0.4375C117.26 0.46875 117.766 0.53125 118.266 0.625C118.776 0.708333 119.271 0.828125 119.75 0.984375C120.229 1.14062 120.667 1.33333 121.062 1.5625L120.625 7.53125C120.042 7.3125 119.438 7.16667 118.812 7.09375C118.198 7.01042 117.594 6.96875 117 6.96875C116.167 6.96875 115.385 7.09896 114.656 7.35938C113.938 7.60938 113.307 7.97396 112.766 8.45312C112.234 8.93229 111.812 9.51562 111.5 10.2031C111.188 10.8906 111.031 11.6667 111.031 12.5312C111.031 13.0729 111.104 13.599 111.25 14.1094C111.396 14.6094 111.615 15.0573 111.906 15.4531C112.208 15.8385 112.578 16.151 113.016 16.3906C113.464 16.6302 113.979 16.75 114.562 16.75C114.958 16.75 115.365 16.6979 115.781 16.5938C116.208 16.4896 116.573 16.3125 116.875 16.0625L116.938 14.8438L113.188 14.7812L113.375 10.0938C114.927 10.0417 116.479 10 118.031 9.96875C119.583 9.92708 121.146 9.875 122.719 9.8125L122.906 20.3125ZM142.422 8.4375C142.422 9.25 142.349 9.98958 142.203 10.6562C142.068 11.3125 141.849 11.9167 141.547 12.4688C141.245 13.0208 140.854 13.5312 140.375 14C139.896 14.4688 139.318 14.9167 138.641 15.3438L142.359 21.9688L135.328 23.3438L132.922 16.6875L130.984 16.75L130.703 23.25H123.984C124.036 20.875 124.083 18.5104 124.125 16.1562C124.177 13.8021 124.234 11.4375 124.297 9.0625C124.318 7.86458 124.339 6.67708 124.359 5.5C124.38 4.32292 124.422 3.13542 124.484 1.9375C125.214 1.66667 125.932 1.44271 126.641 1.26562C127.349 1.08854 128.057 0.953125 128.766 0.859375C129.484 0.755208 130.208 0.6875 130.938 0.65625C131.677 0.614583 132.432 0.59375 133.203 0.59375C134.391 0.59375 135.536 0.760417 136.641 1.09375C137.755 1.41667 138.74 1.90625 139.594 2.5625C140.448 3.21875 141.13 4.03646 141.641 5.01562C142.161 5.99479 142.422 7.13542 142.422 8.4375ZM135.422 8.9375C135.422 8.5 135.359 8.09896 135.234 7.73438C135.12 7.36979 134.943 7.05729 134.703 6.79688C134.474 6.52604 134.182 6.31771 133.828 6.17188C133.484 6.01562 133.078 5.9375 132.609 5.9375C132.401 5.9375 132.198 5.95312 132 5.98438C131.802 6.00521 131.609 6.04167 131.422 6.09375L131.172 11.9062H131.547C131.995 11.9062 132.448 11.849 132.906 11.7344C133.375 11.6198 133.792 11.4427 134.156 11.2031C134.531 10.9635 134.833 10.6562 135.062 10.2812C135.302 9.90625 135.422 9.45833 135.422 8.9375ZM162.828 11.5312C162.828 12.4792 162.719 13.3958 162.5 14.2812C162.281 15.1562 161.964 15.9792 161.547 16.75C161.141 17.5208 160.641 18.2292 160.047 18.875C159.464 19.5104 158.802 20.0573 158.062 20.5156C157.333 20.974 156.536 21.3333 155.672 21.5938C154.807 21.8438 153.891 21.9688 152.922 21.9688C151.984 21.9688 151.089 21.849 150.234 21.6094C149.391 21.3698 148.599 21.0365 147.859 20.6094C147.12 20.1719 146.448 19.651 145.844 19.0469C145.25 18.4323 144.74 17.7552 144.312 17.0156C143.896 16.2656 143.568 15.4635 143.328 14.6094C143.099 13.7552 142.984 12.8646 142.984 11.9375C142.984 11.0312 143.094 10.1458 143.312 9.28125C143.531 8.40625 143.844 7.58333 144.25 6.8125C144.667 6.04167 145.167 5.33333 145.75 4.6875C146.333 4.04167 146.984 3.48438 147.703 3.01562C148.432 2.54688 149.219 2.18229 150.062 1.92188C150.906 1.66146 151.797 1.53125 152.734 1.53125C154.245 1.53125 155.62 1.76562 156.859 2.23438C158.109 2.70312 159.172 3.375 160.047 4.25C160.932 5.11458 161.615 6.16667 162.094 7.40625C162.583 8.63542 162.828 10.0104 162.828 11.5312ZM155.891 11.9375C155.891 11.4896 155.823 11.0573 155.688 10.6406C155.562 10.2135 155.375 9.83854 155.125 9.51562C154.875 9.18229 154.562 8.91667 154.188 8.71875C153.823 8.51042 153.401 8.40625 152.922 8.40625C152.432 8.40625 151.995 8.49479 151.609 8.67188C151.224 8.84896 150.891 9.09375 150.609 9.40625C150.339 9.70833 150.13 10.0677 149.984 10.4844C149.839 10.8906 149.766 11.3229 149.766 11.7812C149.766 12.2188 149.828 12.6562 149.953 13.0938C150.078 13.5312 150.266 13.9271 150.516 14.2812C150.766 14.6354 151.073 14.9219 151.438 15.1406C151.812 15.3594 152.245 15.4688 152.734 15.4688C153.224 15.4688 153.661 15.375 154.047 15.1875C154.443 14.9896 154.776 14.7292 155.047 14.4062C155.318 14.0729 155.526 13.6927 155.672 13.2656C155.818 12.8385 155.891 12.3958 155.891 11.9375ZM183.234 11.5312C183.234 12.4792 183.125 13.3958 182.906 14.2812C182.688 15.1562 182.37 15.9792 181.953 16.75C181.547 17.5208 181.047 18.2292 180.453 18.875C179.87 19.5104 179.208 20.0573 178.469 20.5156C177.74 20.974 176.943 21.3333 176.078 21.5938C175.214 21.8438 174.297 21.9688 173.328 21.9688C172.391 21.9688 171.495 21.849 170.641 21.6094C169.797 21.3698 169.005 21.0365 168.266 20.6094C167.526 20.1719 166.854 19.651 166.25 19.0469C165.656 18.4323 165.146 17.7552 164.719 17.0156C164.302 16.2656 163.974 15.4635 163.734 14.6094C163.505 13.7552 163.391 12.8646 163.391 11.9375C163.391 11.0312 163.5 10.1458 163.719 9.28125C163.938 8.40625 164.25 7.58333 164.656 6.8125C165.073 6.04167 165.573 5.33333 166.156 4.6875C166.74 4.04167 167.391 3.48438 168.109 3.01562C168.839 2.54688 169.625 2.18229 170.469 1.92188C171.312 1.66146 172.203 1.53125 173.141 1.53125C174.651 1.53125 176.026 1.76562 177.266 2.23438C178.516 2.70312 179.578 3.375 180.453 4.25C181.339 5.11458 182.021 6.16667 182.5 7.40625C182.99 8.63542 183.234 10.0104 183.234 11.5312ZM176.297 11.9375C176.297 11.4896 176.229 11.0573 176.094 10.6406C175.969 10.2135 175.781 9.83854 175.531 9.51562C175.281 9.18229 174.969 8.91667 174.594 8.71875C174.229 8.51042 173.807 8.40625 173.328 8.40625C172.839 8.40625 172.401 8.49479 172.016 8.67188C171.63 8.84896 171.297 9.09375 171.016 9.40625C170.745 9.70833 170.536 10.0677 170.391 10.4844C170.245 10.8906 170.172 11.3229 170.172 11.7812C170.172 12.2188 170.234 12.6562 170.359 13.0938C170.484 13.5312 170.672 13.9271 170.922 14.2812C171.172 14.6354 171.479 14.9219 171.844 15.1406C172.219 15.3594 172.651 15.4688 173.141 15.4688C173.63 15.4688 174.068 15.375 174.453 15.1875C174.849 14.9896 175.182 14.7292 175.453 14.4062C175.724 14.0729 175.932 13.6927 176.078 13.2656C176.224 12.8385 176.297 12.3958 176.297 11.9375ZM202.906 1.59375L197.188 22.7188L189.438 23.1562L182.406 2.75L189.812 2.0625L192.812 13.9375L195.719 1.125L202.906 1.59375ZM220.016 10.875C220.016 11.7812 219.953 12.6875 219.828 13.5938C218.047 13.7083 216.276 13.8958 214.516 14.1562C212.755 14.4062 210.995 14.6562 209.234 14.9062C209.505 15.6562 209.927 16.2552 210.5 16.7031C211.083 17.151 211.776 17.375 212.578 17.375C212.995 17.375 213.448 17.2969 213.938 17.1406C214.438 16.9844 214.932 16.7917 215.422 16.5625C215.911 16.3229 216.38 16.0677 216.828 15.7969C217.276 15.526 217.661 15.2812 217.984 15.0625L217.234 22.1562C216.828 22.4688 216.385 22.7344 215.906 22.9531C215.438 23.1719 214.948 23.349 214.438 23.4844C213.927 23.6198 213.411 23.7188 212.891 23.7812C212.37 23.8438 211.859 23.875 211.359 23.875C210.328 23.875 209.385 23.7344 208.531 23.4531C207.677 23.1719 206.901 22.7812 206.203 22.2812C205.516 21.7708 204.911 21.1719 204.391 20.4844C203.87 19.7969 203.438 19.0469 203.094 18.2344C202.75 17.4219 202.49 16.5625 202.312 15.6562C202.135 14.75 202.047 13.8333 202.047 12.9062C202.047 11.9375 202.135 10.9688 202.312 10C202.49 9.03125 202.755 8.09896 203.109 7.20312C203.474 6.30729 203.927 5.47917 204.469 4.71875C205.021 3.94792 205.661 3.27604 206.391 2.70312C207.12 2.13021 207.943 1.68229 208.859 1.35938C209.786 1.03646 210.807 0.875 211.922 0.875C212.849 0.875 213.693 1.00521 214.453 1.26562C215.224 1.51562 215.906 1.86979 216.5 2.32812C217.104 2.77604 217.625 3.3125 218.062 3.9375C218.51 4.5625 218.875 5.25 219.156 6C219.448 6.73958 219.661 7.52604 219.797 8.35938C219.943 9.18229 220.016 10.0208 220.016 10.875ZM213.766 10.0625C213.766 9.77083 213.734 9.47396 213.672 9.17188C213.609 8.85938 213.505 8.57812 213.359 8.32812C213.224 8.07812 213.042 7.875 212.812 7.71875C212.583 7.55208 212.297 7.46875 211.953 7.46875C211.536 7.46875 211.167 7.58333 210.844 7.8125C210.531 8.03125 210.26 8.3125 210.031 8.65625C209.802 8.98958 209.615 9.35417 209.469 9.75C209.323 10.1458 209.214 10.5104 209.141 10.8438L213.766 10.4062V10.0625Z" fill="#DB503D"/>
</svg>
