<svg width="232" height="19" viewBox="0 0 232 19" fill="none" xmlns="http://www.w3.org/2000/svg">
<path d="M12.6172 8.375C13.8516 8.375 14.9102 8.42578 15.793 8.52734C16.6758 8.62891 17.418 8.78125 18.0195 8.98438C18.6289 9.17969 19.1133 9.42578 19.4727 9.72266C19.832 10.0195 20.1094 10.3594 20.3047 10.7422C20.5 11.1172 20.625 11.5391 20.6797 12.0078C20.7422 12.4766 20.7734 12.9844 20.7734 13.5312C20.7734 14.0781 20.7227 14.5938 20.6211 15.0781C20.5273 15.5547 20.3555 15.9922 20.1055 16.3906C19.8555 16.7891 19.5156 17.1445 19.0859 17.457C18.6562 17.7695 18.1094 18.0352 17.4453 18.2539C16.7812 18.4727 15.9805 18.6367 15.043 18.7461C14.1133 18.8633 13.0234 18.9219 11.7734 18.9219H8.77344C7.64844 18.9219 6.66406 18.8789 5.82031 18.793C4.97656 18.707 4.25 18.5781 3.64062 18.4062C3.03125 18.2266 2.52734 18.0039 2.12891 17.7383C1.73047 17.4648 1.41016 17.1484 1.16797 16.7891C0.933594 16.4219 0.769531 16.0078 0.675781 15.5469C0.582031 15.0781 0.535156 14.5625 0.535156 14H2.78516C2.78516 14.7031 2.88672 15.2539 3.08984 15.6523C3.29297 16.0508 3.62891 16.3516 4.09766 16.5547C4.56641 16.75 5.17969 16.875 5.9375 16.9297C6.70312 16.9766 7.64844 17 8.77344 17H11.7734C13.0859 17 14.1758 16.9375 15.043 16.8125C15.9102 16.6875 16.6016 16.4883 17.1172 16.2148C17.6328 15.9414 17.9961 15.5859 18.207 15.1484C18.418 14.7031 18.5234 14.1641 18.5234 13.5312C18.5234 12.8984 18.4492 12.3711 18.3008 11.9492C18.1602 11.5273 17.875 11.1914 17.4453 10.9414C17.0234 10.6914 16.4258 10.5156 15.6523 10.4141C14.8789 10.3047 13.8672 10.25 12.6172 10.25H9.52344C8.14844 10.25 6.96875 10.1992 5.98438 10.0977C5.00781 9.99609 4.1875 9.85156 3.52344 9.66406C2.85938 9.46875 2.32812 9.23047 1.92969 8.94922C1.53125 8.66016 1.22656 8.33203 1.01562 7.96484C0.8125 7.59766 0.679688 7.19141 0.617188 6.74609C0.554688 6.29297 0.523438 5.80469 0.523438 5.28125C0.523438 4.73438 0.570312 4.22656 0.664062 3.75781C0.765625 3.28906 0.949219 2.86719 1.21484 2.49219C1.48047 2.10938 1.84375 1.76953 2.30469 1.47266C2.76562 1.17578 3.35547 0.929688 4.07422 0.734375C4.80078 0.53125 5.67188 0.378906 6.6875 0.277344C7.70312 0.175781 8.89844 0.125 10.2734 0.125H12.5234C13.6484 0.125 14.6328 0.167969 15.4766 0.253906C16.3203 0.332031 17.0469 0.460938 17.6562 0.640625C18.2656 0.8125 18.7695 1.03125 19.168 1.29688C19.5742 1.55469 19.8945 1.86719 20.1289 2.23438C20.3711 2.59375 20.5391 3.00391 20.6328 3.46484C20.7266 3.92578 20.7734 4.4375 20.7734 5H18.5234C18.5234 4.29688 18.4219 3.74609 18.2188 3.34766C18.0156 2.94922 17.6797 2.65234 17.2109 2.45703C16.7422 2.25391 16.125 2.12891 15.3594 2.08203C14.5938 2.02734 13.6484 2 12.5234 2H10.2734C8.77344 2 7.53906 2.05469 6.57031 2.16406C5.60156 2.26562 4.83594 2.44141 4.27344 2.69141C3.71094 2.94141 3.32031 3.27734 3.10156 3.69922C2.88281 4.12109 2.77344 4.64844 2.77344 5.28125C2.77344 5.67188 2.80078 6.01953 2.85547 6.32422C2.91016 6.62891 3.01953 6.89844 3.18359 7.13281C3.35547 7.35938 3.59375 7.55078 3.89844 7.70703C4.20312 7.86328 4.60547 7.99219 5.10547 8.09375C5.60547 8.19531 6.21484 8.26953 6.93359 8.31641C7.66016 8.35547 8.52344 8.375 9.52344 8.375H12.6172ZM37.2734 18.5V10.8828C37.2734 10.0703 37.2109 9.38672 37.0859 8.83203C36.9609 8.26953 36.7109 7.81641 36.3359 7.47266C35.9609 7.12891 35.4297 6.88281 34.7422 6.73438C34.0547 6.57812 33.1484 6.5 32.0234 6.5C30.8047 6.5 29.8047 6.58984 29.0234 6.76953C28.25 6.94141 27.6406 7.1875 27.1953 7.50781C26.75 7.82031 26.4414 8.19922 26.2695 8.64453C26.1055 9.08984 26.0234 9.58594 26.0234 10.1328V18.5H23.7734V0.5H26.0234V7.13281C26.1797 6.76562 26.4023 6.44922 26.6914 6.18359C26.9805 5.91797 27.3125 5.69141 27.6875 5.50391C28.0703 5.31641 28.4805 5.16797 28.918 5.05859C29.3555 4.94141 29.7969 4.85156 30.2422 4.78906C30.6953 4.72656 31.1367 4.68359 31.5664 4.66016C32.0039 4.63672 32.4062 4.625 32.7734 4.625C33.7734 4.625 34.6328 4.6875 35.3516 4.8125C36.0781 4.92969 36.6914 5.10938 37.1914 5.35156C37.6992 5.58594 38.1055 5.87891 38.4102 6.23047C38.7148 6.58203 38.9492 6.99219 39.1133 7.46094C39.2852 7.92188 39.3984 8.44141 39.4531 9.01953C39.5078 9.58984 39.5352 10.2109 39.5352 10.8828L39.5234 18.5H37.2734ZM50.4219 18.7578C48.9219 18.7578 47.6484 18.6562 46.6016 18.4531C45.5547 18.2422 44.7031 17.8828 44.0469 17.375C43.3906 16.8672 42.9141 16.1875 42.6172 15.3359C42.3203 14.4844 42.1719 13.4141 42.1719 12.125C42.1719 10.6484 42.3203 9.42969 42.6172 8.46875C42.9141 7.5 43.3906 6.73047 44.0469 6.16016C44.7031 5.58984 45.5547 5.19141 46.6016 4.96484C47.6484 4.73828 48.9219 4.625 50.4219 4.625C51.4922 4.625 52.418 4.70312 53.1992 4.85938C53.9883 5.01562 54.6602 5.24219 55.2148 5.53906C55.7773 5.83594 56.2305 6.19531 56.5742 6.61719C56.9258 7.03906 57.1992 7.48438 57.3945 7.95312C57.5977 8.41406 57.7344 8.95703 57.8047 9.58203C57.8828 10.207 57.9219 10.8672 57.9219 11.5625L57.7344 12.3125H44.4219C44.4219 13.3438 44.5234 14.1914 44.7266 14.8555C44.9297 15.5117 45.2656 15.9922 45.7344 16.2969C46.2031 16.6016 46.8203 16.7969 47.5859 16.8828C48.3516 16.9609 49.2969 17 50.4219 17C51.4531 17 52.3047 16.9727 52.9766 16.918C53.6562 16.8555 54.1953 16.7422 54.5938 16.5781C54.9922 16.4141 55.2695 16.1875 55.4258 15.8984C55.5898 15.6016 55.6719 15.2188 55.6719 14.75H57.9219C57.9219 15.4766 57.793 16.0977 57.5352 16.6133C57.2852 17.1211 56.8672 17.5352 56.2812 17.8555C55.6953 18.168 54.9219 18.3945 53.9609 18.5352C53.0078 18.6836 51.8281 18.7578 50.4219 18.7578ZM50.4219 6.5C49.6719 6.5 49 6.51562 48.4062 6.54688C47.8203 6.57812 47.3047 6.64844 46.8594 6.75781C46.4219 6.85938 46.0469 7.01172 45.7344 7.21484C45.4219 7.41016 45.168 7.64453 44.9727 7.91797C44.7852 8.18359 44.6445 8.5625 44.5508 9.05469C44.4648 9.53906 44.4219 10.125 44.4219 10.8125H55.6719C55.6719 9.89844 55.5742 9.18359 55.3789 8.66797C55.1836 8.14453 54.875 7.71484 54.4531 7.37891C54.0312 7.04297 53.4883 6.8125 52.8242 6.6875C52.1602 6.5625 51.3594 6.5 50.4219 6.5ZM60.9219 0.5H63.1719V10.3438H63.9219L72.1719 5H75.5469L65.9844 11.2812L75.9219 18.5H72.5469L63.9219 12.0312H63.1719V18.5H60.9219V0.5ZM78.1719 5H80.4219V18.5H78.1719V5ZM80.4219 2.75H78.1719V0.5H80.4219V2.75ZM97.6719 18.5V11C97.6719 10.1641 97.6094 9.46094 97.4844 8.89062C97.3594 8.3125 97.1094 7.84766 96.7344 7.49609C96.3594 7.14453 95.8281 6.89062 95.1406 6.73438C94.4531 6.57812 93.5469 6.5 92.4219 6.5C91.2031 6.5 90.2031 6.58984 89.4219 6.76953C88.6484 6.94922 88.0391 7.20312 87.5938 7.53125C87.1484 7.85938 86.8398 8.25391 86.668 8.71484C86.5039 9.17578 86.4219 9.6875 86.4219 10.25V18.5H84.1719V5H86.4219V7.25C86.5859 6.86719 86.8203 6.53906 87.125 6.26562C87.4297 5.98438 87.7734 5.74609 88.1562 5.55078C88.5391 5.35547 88.9531 5.19922 89.3984 5.08203C89.8438 4.95703 90.2891 4.86328 90.7344 4.80078C91.1797 4.73047 91.6094 4.68359 92.0234 4.66016C92.4453 4.63672 92.8281 4.625 93.1719 4.625C94.1719 4.625 95.0312 4.6875 95.75 4.8125C96.4766 4.9375 97.0898 5.12109 97.5898 5.36328C98.0977 5.60547 98.5039 5.90625 98.8086 6.26562C99.1133 6.625 99.3477 7.04297 99.5117 7.51953C99.6836 7.98828 99.7969 8.51562 99.8516 9.10156C99.9062 9.67969 99.9336 10.3125 99.9336 11L99.9219 18.5H97.6719ZM116.387 16.6484C116.363 16.7422 116.188 16.9766 115.859 17.3516C115.625 17.6328 115.312 17.8828 114.922 18.1016C114.531 18.3125 114.008 18.4766 113.352 18.5938C112.703 18.7188 111.848 18.7812 110.785 18.7812C109.371 18.7812 108.164 18.707 107.164 18.5586C106.164 18.418 105.348 18.1992 104.715 17.9023C104.082 17.5977 103.617 17.2109 103.32 16.7422C103.031 16.2734 102.887 15.7148 102.887 15.0664C102.887 14.3867 102.965 13.8125 103.121 13.3438C103.285 12.8672 103.52 12.4688 103.824 12.1484C104.137 11.8281 104.512 11.5781 104.949 11.3984C105.387 11.2188 105.883 11.082 106.438 10.9883C107 10.8945 107.613 10.8359 108.277 10.8125C108.941 10.7891 109.648 10.7773 110.398 10.7773C111.469 10.7773 112.363 10.8242 113.082 10.918C113.801 11.0039 114.387 11.1172 114.84 11.2578C115.301 11.3906 115.648 11.5352 115.883 11.6914C116.117 11.8477 116.285 11.9922 116.387 12.125C116.387 11.25 116.348 10.5039 116.27 9.88672C116.199 9.26953 116.078 8.75391 115.906 8.33984C115.742 7.92578 115.527 7.59766 115.262 7.35547C114.996 7.10547 114.668 6.91797 114.277 6.79297C113.895 6.66797 113.445 6.58984 112.93 6.55859C112.414 6.51953 111.824 6.5 111.16 6.5C110.129 6.5 109.273 6.52734 108.594 6.58203C107.914 6.62891 107.375 6.72656 106.977 6.875C106.578 7.02344 106.297 7.23047 106.133 7.49609C105.969 7.75391 105.887 8.09375 105.887 8.51562H103.637C103.637 7.80469 103.762 7.20312 104.012 6.71094C104.27 6.21875 104.691 5.82031 105.277 5.51562C105.871 5.20312 106.648 4.97656 107.609 4.83594C108.57 4.69531 109.754 4.625 111.16 4.625C112.535 4.625 113.699 4.73828 114.652 4.96484C115.605 5.19141 116.375 5.58984 116.961 6.16016C117.555 6.73047 117.98 7.5 118.238 8.46875C118.504 9.42969 118.637 10.6484 118.637 12.125V18.5H116.387V16.6484ZM111.16 17C112.152 17 112.98 16.9531 113.645 16.8594C114.316 16.7656 114.855 16.625 115.262 16.4375C115.668 16.25 115.957 16.0156 116.129 15.7344C116.301 15.4531 116.387 15.125 116.387 14.75C116.387 14.375 116.285 14.0586 116.082 13.8008C115.887 13.5352 115.555 13.3203 115.086 13.1562C114.625 12.9922 114.012 12.875 113.246 12.8047C112.48 12.7266 111.535 12.6875 110.41 12.6875C109.285 12.6875 108.375 12.707 107.68 12.7461C106.992 12.7852 106.461 12.875 106.086 13.0156C105.711 13.1562 105.457 13.3633 105.324 13.6367C105.199 13.9102 105.137 14.2812 105.137 14.75C105.137 15.2188 105.203 15.6016 105.336 15.8984C105.477 16.1875 105.758 16.4141 106.18 16.5781C106.602 16.7422 107.207 16.8555 107.996 16.918C108.793 16.9727 109.848 17 111.16 17ZM127.648 18.5V0.5H145.648V2.375H129.898V8.375H144.898V10.25H129.898V16.625H145.648V18.5H127.648ZM155.773 12.3477C154.711 12.3477 153.777 12.332 152.973 12.3008C152.168 12.2695 151.473 12.207 150.887 12.1133C150.309 12.0117 149.824 11.8711 149.434 11.6914C149.051 11.5117 148.746 11.2734 148.52 10.9766C148.293 10.6719 148.133 10.3008 148.039 9.86328C147.945 9.41797 147.898 8.9375 147.898 8.42188C147.898 7.71875 148.047 7.12891 148.344 6.65234C148.641 6.16797 149.117 5.77734 149.773 5.48047C150.43 5.17578 151.281 4.95703 152.328 4.82422C153.375 4.69141 154.648 4.625 156.148 4.625C157.633 4.625 158.855 4.70312 159.816 4.85938C160.785 5.01562 161.551 5.25781 162.113 5.58594C162.684 5.90625 163.082 6.3125 163.309 6.80469C163.535 7.29688 163.648 7.88281 163.648 8.5625H161.398C161.398 8.14062 161.316 7.79688 161.152 7.53125C160.996 7.26562 160.719 7.05859 160.32 6.91016C159.922 6.75391 159.383 6.64844 158.703 6.59375C158.031 6.53125 157.18 6.5 156.148 6.5C155.023 6.5 154.078 6.51562 153.312 6.54688C152.547 6.57812 151.93 6.65625 151.461 6.78125C150.992 6.90625 150.656 7.09766 150.453 7.35547C150.25 7.61328 150.148 7.96875 150.148 8.42188C150.148 8.6875 150.164 8.94922 150.195 9.20703C150.234 9.45703 150.316 9.66406 150.441 9.82812C150.566 9.99219 150.75 10.1172 150.992 10.2031C151.234 10.2891 151.562 10.3555 151.977 10.4023C152.398 10.4414 152.918 10.4648 153.535 10.4727C154.152 10.4727 154.898 10.4727 155.773 10.4727C156.836 10.4727 157.766 10.4961 158.562 10.543C159.367 10.5898 160.062 10.6719 160.648 10.7891C161.234 10.9062 161.719 11.0859 162.102 11.3281C162.484 11.5703 162.789 11.8359 163.016 12.125C163.25 12.4062 163.414 12.7422 163.508 13.1328C163.602 13.5156 163.648 13.9609 163.648 14.4688C163.648 14.9766 163.602 15.4336 163.508 15.8398C163.414 16.2383 163.25 16.5938 163.016 16.9062C162.781 17.2109 162.461 17.4766 162.055 17.7031C161.656 17.9219 161.152 18.1016 160.543 18.2422C159.934 18.375 159.203 18.4727 158.352 18.5352C157.508 18.6055 156.523 18.6406 155.398 18.6406C153.992 18.6406 152.809 18.5703 151.848 18.4297C150.895 18.2891 150.125 18.0664 149.539 17.7617C148.953 17.4492 148.531 17.0469 148.273 16.5547C148.023 16.0625 147.898 15.4609 147.898 14.75H150.148C150.148 15.2188 150.227 15.6016 150.383 15.8984C150.547 16.1875 150.828 16.4141 151.227 16.5781C151.625 16.7422 152.16 16.8555 152.832 16.918C153.512 16.9727 154.367 17 155.398 17C156.336 17 157.133 16.9805 157.789 16.9414C158.453 16.8945 159.008 16.8242 159.453 16.7305C159.898 16.6367 160.25 16.5234 160.508 16.3906C160.766 16.2578 160.961 16.0977 161.094 15.9102C161.227 15.7227 161.309 15.5156 161.34 15.2891C161.379 15.0547 161.398 14.7969 161.398 14.5156C161.398 14.2578 161.379 14.0312 161.34 13.8359C161.309 13.6328 161.23 13.4336 161.105 13.2383C160.98 13.0352 160.797 12.8828 160.555 12.7812C160.312 12.6797 159.98 12.5977 159.559 12.5352C159.145 12.4648 158.629 12.418 158.012 12.3945C157.395 12.3633 156.648 12.3477 155.773 12.3477ZM179.773 12.5C179.773 13.6484 179.68 14.6094 179.492 15.3828C179.305 16.1484 178.988 16.7617 178.543 17.2227C178.105 17.6836 177.527 18.0117 176.809 18.207C176.09 18.4023 175.203 18.5 174.148 18.5C173.125 18.5 172.266 18.4219 171.57 18.2656C170.875 18.1094 170.312 17.8438 169.883 17.4688C169.453 17.0938 169.145 16.5938 168.957 15.9688C168.77 15.3438 168.676 14.5625 168.676 13.625V6.85156H165.898V5H168.676V1.30859H170.926V5H179.398V6.85156H170.926V13.625C170.926 14.375 170.98 14.9531 171.09 15.3594C171.207 15.7656 171.391 16.0625 171.641 16.25C171.891 16.4375 172.219 16.5469 172.625 16.5781C173.039 16.6094 173.543 16.625 174.137 16.625C174.605 16.625 175.023 16.6172 175.391 16.6016C175.766 16.5859 176.09 16.5391 176.363 16.4609C176.645 16.375 176.883 16.25 177.078 16.0859C177.273 15.9141 177.43 15.6758 177.547 15.3711C177.672 15.0664 177.762 14.6836 177.816 14.2227C177.871 13.7539 177.898 13.1797 177.898 12.5H179.773ZM195.465 16.6484C195.441 16.7422 195.266 16.9766 194.938 17.3516C194.703 17.6328 194.391 17.8828 194 18.1016C193.609 18.3125 193.086 18.4766 192.43 18.5938C191.781 18.7188 190.926 18.7812 189.863 18.7812C188.449 18.7812 187.242 18.707 186.242 18.5586C185.242 18.418 184.426 18.1992 183.793 17.9023C183.16 17.5977 182.695 17.2109 182.398 16.7422C182.109 16.2734 181.965 15.7148 181.965 15.0664C181.965 14.3867 182.043 13.8125 182.199 13.3438C182.363 12.8672 182.598 12.4688 182.902 12.1484C183.215 11.8281 183.59 11.5781 184.027 11.3984C184.465 11.2188 184.961 11.082 185.516 10.9883C186.078 10.8945 186.691 10.8359 187.355 10.8125C188.02 10.7891 188.727 10.7773 189.477 10.7773C190.547 10.7773 191.441 10.8242 192.16 10.918C192.879 11.0039 193.465 11.1172 193.918 11.2578C194.379 11.3906 194.727 11.5352 194.961 11.6914C195.195 11.8477 195.363 11.9922 195.465 12.125C195.465 11.25 195.426 10.5039 195.348 9.88672C195.277 9.26953 195.156 8.75391 194.984 8.33984C194.82 7.92578 194.605 7.59766 194.34 7.35547C194.074 7.10547 193.746 6.91797 193.355 6.79297C192.973 6.66797 192.523 6.58984 192.008 6.55859C191.492 6.51953 190.902 6.5 190.238 6.5C189.207 6.5 188.352 6.52734 187.672 6.58203C186.992 6.62891 186.453 6.72656 186.055 6.875C185.656 7.02344 185.375 7.23047 185.211 7.49609C185.047 7.75391 184.965 8.09375 184.965 8.51562H182.715C182.715 7.80469 182.84 7.20312 183.09 6.71094C183.348 6.21875 183.77 5.82031 184.355 5.51562C184.949 5.20312 185.727 4.97656 186.688 4.83594C187.648 4.69531 188.832 4.625 190.238 4.625C191.613 4.625 192.777 4.73828 193.73 4.96484C194.684 5.19141 195.453 5.58984 196.039 6.16016C196.633 6.73047 197.059 7.5 197.316 8.46875C197.582 9.42969 197.715 10.6484 197.715 12.125V18.5H195.465V16.6484ZM190.238 17C191.23 17 192.059 16.9531 192.723 16.8594C193.395 16.7656 193.934 16.625 194.34 16.4375C194.746 16.25 195.035 16.0156 195.207 15.7344C195.379 15.4531 195.465 15.125 195.465 14.75C195.465 14.375 195.363 14.0586 195.16 13.8008C194.965 13.5352 194.633 13.3203 194.164 13.1562C193.703 12.9922 193.09 12.875 192.324 12.8047C191.559 12.7266 190.613 12.6875 189.488 12.6875C188.363 12.6875 187.453 12.707 186.758 12.7461C186.07 12.7852 185.539 12.875 185.164 13.0156C184.789 13.1562 184.535 13.3633 184.402 13.6367C184.277 13.9102 184.215 14.2812 184.215 14.75C184.215 15.2188 184.281 15.6016 184.414 15.8984C184.555 16.1875 184.836 16.4141 185.258 16.5781C185.68 16.7422 186.285 16.8555 187.074 16.918C187.871 16.9727 188.926 17 190.238 17ZM213.852 12.5C213.852 13.6484 213.758 14.6094 213.57 15.3828C213.383 16.1484 213.066 16.7617 212.621 17.2227C212.184 17.6836 211.605 18.0117 210.887 18.207C210.168 18.4023 209.281 18.5 208.227 18.5C207.203 18.5 206.344 18.4219 205.648 18.2656C204.953 18.1094 204.391 17.8438 203.961 17.4688C203.531 17.0938 203.223 16.5938 203.035 15.9688C202.848 15.3438 202.754 14.5625 202.754 13.625V6.85156H199.977V5H202.754V1.30859H205.004V5H213.477V6.85156H205.004V13.625C205.004 14.375 205.059 14.9531 205.168 15.3594C205.285 15.7656 205.469 16.0625 205.719 16.25C205.969 16.4375 206.297 16.5469 206.703 16.5781C207.117 16.6094 207.621 16.625 208.215 16.625C208.684 16.625 209.102 16.6172 209.469 16.6016C209.844 16.5859 210.168 16.5391 210.441 16.4609C210.723 16.375 210.961 16.25 211.156 16.0859C211.352 15.9141 211.508 15.6758 211.625 15.3711C211.75 15.0664 211.84 14.6836 211.895 14.2227C211.949 13.7539 211.977 13.1797 211.977 12.5H213.852ZM223.977 18.7578C222.477 18.7578 221.203 18.6562 220.156 18.4531C219.109 18.2422 218.258 17.8828 217.602 17.375C216.945 16.8672 216.469 16.1875 216.172 15.3359C215.875 14.4844 215.727 13.4141 215.727 12.125C215.727 10.6484 215.875 9.42969 216.172 8.46875C216.469 7.5 216.945 6.73047 217.602 6.16016C218.258 5.58984 219.109 5.19141 220.156 4.96484C221.203 4.73828 222.477 4.625 223.977 4.625C225.047 4.625 225.973 4.70312 226.754 4.85938C227.543 5.01562 228.215 5.24219 228.77 5.53906C229.332 5.83594 229.785 6.19531 230.129 6.61719C230.48 7.03906 230.754 7.48438 230.949 7.95312C231.152 8.41406 231.289 8.95703 231.359 9.58203C231.438 10.207 231.477 10.8672 231.477 11.5625L231.289 12.3125H217.977C217.977 13.3438 218.078 14.1914 218.281 14.8555C218.484 15.5117 218.82 15.9922 219.289 16.2969C219.758 16.6016 220.375 16.7969 221.141 16.8828C221.906 16.9609 222.852 17 223.977 17C225.008 17 225.859 16.9727 226.531 16.918C227.211 16.8555 227.75 16.7422 228.148 16.5781C228.547 16.4141 228.824 16.1875 228.98 15.8984C229.145 15.6016 229.227 15.2188 229.227 14.75H231.477C231.477 15.4766 231.348 16.0977 231.09 16.6133C230.84 17.1211 230.422 17.5352 229.836 17.8555C229.25 18.168 228.477 18.3945 227.516 18.5352C226.562 18.6836 225.383 18.7578 223.977 18.7578ZM223.977 6.5C223.227 6.5 222.555 6.51562 221.961 6.54688C221.375 6.57812 220.859 6.64844 220.414 6.75781C219.977 6.85938 219.602 7.01172 219.289 7.21484C218.977 7.41016 218.723 7.64453 218.527 7.91797C218.34 8.18359 218.199 8.5625 218.105 9.05469C218.02 9.53906 217.977 10.125 217.977 10.8125H229.227C229.227 9.89844 229.129 9.18359 228.934 8.66797C228.738 8.14453 228.43 7.71484 228.008 7.37891C227.586 7.04297 227.043 6.8125 226.379 6.6875C225.715 6.5625 224.914 6.5 223.977 6.5Z" fill="#B4A200"/>
</svg>
