<svg width="56" height="56" viewBox="0 0 56 56" fill="none" xmlns="http://www.w3.org/2000/svg">
<path fill-rule="evenodd" clip-rule="evenodd" d="M37.917 8.75V12.6933L42.5837 16.4267V8.75H37.917ZM46.0837 19.2267V8.16667C46.0837 6.55667 44.777 5.25 43.167 5.25H37.3337C35.7237 5.25 34.417 6.55667 34.417 8.16667V9.89333L33.4673 9.13267C31.9157 7.89101 29.9876 7.21453 28.0003 7.21453C26.013 7.21453 24.085 7.89101 22.5333 9.13267L3.57499 24.2993C3.21235 24.5893 2.97974 25.0114 2.92832 25.4728C2.87691 25.9342 3.0109 26.3972 3.30083 26.7598C3.59075 27.1225 4.01286 27.3551 4.47429 27.4065C4.93573 27.4579 5.39869 27.3239 5.76133 27.034L7.58366 25.5733V49.5833H4.66699C4.20286 49.5833 3.75774 49.7677 3.42956 50.0959C3.10137 50.4241 2.91699 50.8692 2.91699 51.3333C2.91699 51.7975 3.10137 52.2426 3.42956 52.5708C3.75774 52.899 4.20286 53.0833 4.66699 53.0833H51.3337C51.7978 53.0833 52.2429 52.899 52.5711 52.5708C52.8993 52.2426 53.0837 51.7975 53.0837 51.3333C53.0837 50.8692 52.8993 50.4241 52.5711 50.0959C52.2429 49.7677 51.7978 49.5833 51.3337 49.5833H48.417V25.5733L50.2417 27.034C50.6049 27.3171 51.0651 27.4455 51.5224 27.3916C51.9798 27.3376 52.3974 27.1056 52.6848 26.7457C52.9722 26.3859 53.1061 25.9273 53.0576 25.4693C53.0091 25.0114 52.782 24.591 52.4257 24.2993L46.0837 19.2267ZM44.917 22.7733L31.281 11.865C30.3499 11.1198 29.1929 10.7137 28.0003 10.7137C26.8078 10.7137 25.6507 11.1198 24.7197 11.865L11.0837 22.7733V49.5833H19.2503V39.55C19.2503 38.0007 19.2503 36.6637 19.395 35.5927C19.549 34.4447 19.8967 33.3457 20.788 32.4543C21.6793 31.563 22.7807 31.2153 23.9263 31.0613C24.9973 30.9167 26.3343 30.9167 27.886 30.9167H28.1147C29.6663 30.9167 31.0033 30.9167 32.0743 31.0613C33.2223 31.2153 34.3213 31.563 35.2127 32.4543C36.104 33.3457 36.4517 34.4447 36.6057 35.5927C36.7503 36.6637 36.7503 38.0007 36.7503 39.5523V49.5833H44.917V22.7733ZM33.2503 49.5833V39.6667C33.2503 37.968 33.2457 36.8667 33.1383 36.0593C33.0357 35.301 32.8723 35.063 32.737 34.93C32.604 34.797 32.366 34.6313 31.6077 34.5287C30.798 34.4213 29.699 34.4167 28.0003 34.4167C26.3017 34.4167 25.2003 34.4213 24.393 34.5287C23.6347 34.6313 23.3967 34.797 23.2637 34.93C23.1307 35.063 22.965 35.301 22.8623 36.0593C22.755 36.869 22.7503 37.968 22.7503 39.6667V49.5833H33.2503ZM28.0003 19.25C27.6173 19.25 27.238 19.3254 26.8842 19.472C26.5303 19.6186 26.2088 19.8334 25.9379 20.1043C25.6671 20.3751 25.4523 20.6966 25.3057 21.0505C25.1591 21.4044 25.0837 21.7836 25.0837 22.1667C25.0837 22.5497 25.1591 22.929 25.3057 23.2828C25.4523 23.6367 25.6671 23.9582 25.9379 24.2291C26.2088 24.4999 26.5303 24.7147 26.8842 24.8613C27.238 25.0079 27.6173 25.0833 28.0003 25.0833C28.7739 25.0833 29.5157 24.776 30.0627 24.2291C30.6097 23.6821 30.917 22.9402 30.917 22.1667C30.917 21.3931 30.6097 20.6513 30.0627 20.1043C29.5157 19.5573 28.7739 19.25 28.0003 19.25ZM21.5837 22.1667C21.5837 20.4649 22.2597 18.8328 23.4631 17.6294C24.6664 16.426 26.2985 15.75 28.0003 15.75C29.7021 15.75 31.3342 16.426 32.5376 17.6294C33.741 18.8328 34.417 20.4649 34.417 22.1667C34.417 23.8685 33.741 25.5006 32.5376 26.7039C31.3342 27.9073 29.7021 28.5833 28.0003 28.5833C26.2985 28.5833 24.6664 27.9073 23.4631 26.7039C22.2597 25.5006 21.5837 23.8685 21.5837 22.1667Z" fill="#ED8A09"/>
</svg>
