<svg width="67" height="48" viewBox="0 0 67 48" fill="none" xmlns="http://www.w3.org/2000/svg">
<path d="M39.5 27C37 27 34.875 26.125 33.125 24.375C31.375 22.625 30.5 20.5 30.5 18C30.5 15.5 31.375 13.375 33.125 11.625C34.875 9.875 37 9 39.5 9C42 9 44.125 9.875 45.875 11.625C47.625 13.375 48.5 15.5 48.5 18C48.5 20.5 47.625 22.625 45.875 24.375C44.125 26.125 42 27 39.5 27ZM18.5 36C16.85 36 15.437 35.412 14.261 34.236C13.085 33.06 12.498 31.648 12.5 30V6C12.5 4.35001 13.088 2.937 14.264 1.761C15.44 0.585005 16.852 -0.00199491 18.5 5.09338e-06H60.5C62.15 5.09338e-06 63.563 0.588004 64.739 1.764C65.915 2.94 66.502 4.35201 66.5 6V30C66.5 31.65 65.912 33.063 64.736 34.239C63.56 35.415 62.148 36.002 60.5 36H18.5ZM24.5 30H54.5C54.5 28.35 55.088 26.937 56.264 25.761C57.44 24.585 58.852 23.998 60.5 24V12C58.85 12 57.437 11.412 56.261 10.236C55.085 9.06001 54.498 7.64801 54.5 6H24.5C24.5 7.65 23.912 9.06301 22.736 10.239C21.56 11.415 20.148 12.002 18.5 12V24C20.15 24 21.563 24.588 22.739 25.764C23.915 26.94 24.502 28.352 24.5 30ZM57.5 48H6.50001C4.85001 48 3.43701 47.412 2.26101 46.236C1.08501 45.06 0.498005 43.648 0.500005 42V9H6.50001V42H57.5V48Z" fill="#323232"/>
</svg>
