<svg width="73" height="72" viewBox="0 0 73 72" fill="none" xmlns="http://www.w3.org/2000/svg">
<g clip-path="url(#clip0_226_6022)">
<path d="M4.136 0L0.5 3.636L6.90523 14.7129L11.0591 14.1037L36.4142 39.4615L34.2514 41.5385C33.1437 42.6462 33.1437 44.3243 34.2514 45.432L35.3757 46.5591C36.4834 47.6668 38.1782 47.6668 39.0089 46.5591L42.2988 49.8462C42.0218 51.5077 42.2988 53.4822 43.6834 54.8668L58.6538 69.7514C61.7 72.7975 66.6846 72.7975 69.7308 69.7514C73.3308 66.4283 73.2975 61.4603 70.2514 58.4142L55.3668 43.4409C53.9822 42.0563 52.0077 41.5025 50.3462 42.0563L46.7102 38.7692C47.5409 37.6615 47.5409 35.9668 46.7102 35.1332L45.6717 34.0975C45.42 33.835 45.1177 33.6261 44.7832 33.4834C44.4486 33.3407 44.0886 33.2672 43.7249 33.2672C43.3612 33.2672 43.0012 33.3407 42.6667 33.4834C42.3321 33.6261 42.0299 33.835 41.7782 34.0975L39.9615 35.9142L14.6065 10.5591L15.2102 6.40523L4.136 0ZM58.136 0.0858462C52.6723 -0.368308 45.428 3.25385 42.0385 6.40246C37.868 10.5729 38.5492 16.0255 41.864 21.2898L35.9822 27.1745L40.136 31.8462C42.3514 29.9077 45.6191 29.9077 47.8345 31.8462L48.9615 32.9705L49.2218 33.2308L51.6449 30.8077C56.6517 33.7514 61.8634 34.1751 65.8372 30.2012C69.7142 26.6012 73.9178 17.7231 71.9794 12.4615L64.1923 20.5089C63.0846 21.6166 61.4065 21.6166 60.2988 20.5089L52.2486 12.4615C51.9861 12.2098 51.7772 11.9076 51.6345 11.573C51.4918 11.2384 51.4182 10.8785 51.4182 10.5148C51.4182 10.1511 51.4918 9.79109 51.6345 9.45654C51.7772 9.12198 51.9861 8.81974 52.2486 8.568L60.3015 0.520615C59.6092 0.276923 58.9169 0.152308 58.136 0.0858462ZM27.6745 34.6154L17.6332 44.6538C16.5542 44.4141 15.4514 44.298 14.3462 44.3077C6.59231 44.3077 0.5 50.4 0.5 58.1538C0.5 65.9077 6.59231 72 14.3462 72C22.1 72 28.1923 65.9077 28.1923 58.1538C28.1923 56.7332 27.968 55.368 27.5858 54.0858L33.4705 48.2012L32.6065 47.0769C30.3911 44.8615 30.4077 41.5052 32.3462 39.2871L27.6745 34.6154ZM49.136 47.2514C49.4822 47.2514 49.8089 47.3178 50.0858 47.5975L66.4437 63.9526C66.9975 64.5065 66.9975 65.3871 66.4437 65.9409C65.8898 66.4948 65.0037 66.4948 64.4498 65.9409L48.0975 49.5858C47.5437 49.032 47.5437 48.1514 48.0975 47.5975C48.3745 47.3206 48.7898 47.2514 49.136 47.2514ZM16.2514 50.9677L21.5295 56.2486L19.6243 63.4292L12.4437 65.3345L7.16277 60.0535L9.068 52.8729L16.2514 50.9677Z" fill="#323232"/>
</g>
<defs>
<clipPath id="clip0_226_6022">
<rect width="72" height="72" fill="white" transform="translate(0.5)"/>
</clipPath>
</defs>
</svg>
